<?xml version="1.0" encoding="utf-8"?>
<!-- Generator: Adobe Illustrator 27.5.0, SVG Export Plug-In . SVG Version: 6.00 Build 0)  -->
<svg version="1.1" xmlns="http://www.w3.org/2000/svg" xmlns:xlink="http://www.w3.org/1999/xlink" x="0px" y="0px"
	 viewBox="0 0 750 500" style="enable-background:new 0 0 750 500;" xml:space="preserve">
<g id="BACKGROUND">
	<rect style="fill:#D6E0F4;" width="750" height="500"/>
</g>
<g id="OBJECTS">
	<g>
		<g>
			<g>
				<path style="fill:#B8C9EA;" d="M399.97,272.099c-9.597-37.169-6.058-77.59,9.851-112.526
					c15.909-34.936,44.077-64.142,78.415-81.304c10.094,38.599,11.615,80.184-3.277,117.197
					C470.067,232.48,438.019,260.096,399.97,272.099z"/>
				<g>
					<path style="fill:#A0B4DB;" d="M483.941,89.426c-4.151,11.798-8.412,23.558-12.834,35.257
						c-4.423,11.702-9.006,23.345-13.796,34.902c-4.811,11.607-9.833,23.128-15.111,34.531
						c-5.245,11.332-10.742,22.548-16.535,33.611c-5.792,11.062-11.88,21.97-18.299,32.68c-0.807,1.346-1.619,2.688-2.435,4.027
						c-0.336,0.551,0.529,1.054,0.864,0.505c6.529-10.709,12.725-21.619,18.616-32.692c5.89-11.071,11.477-22.302,16.804-33.655
						c5.304-11.305,10.35-22.73,15.186-34.243c4.844-11.534,9.475-23.156,13.941-34.842c4.484-11.735,8.8-23.534,12.998-35.375
						c0.524-1.479,1.047-2.959,1.568-4.439C485.12,89.084,484.154,88.822,483.941,89.426z"/>
					<path style="fill:#A0B4DB;" d="M464.332,135.961c-4.294-7.169-7.472-14.979-9.389-23.114c-0.539-2.288-0.976-4.598-1.317-6.923
						c-0.093-0.634-1.057-0.365-0.964,0.266c1.219,8.315,3.722,16.423,7.396,23.982c1.044,2.147,2.184,4.246,3.411,6.295
						C463.799,137.017,464.664,136.515,464.332,135.961z"/>
					<path style="fill:#A0B4DB;" d="M449.056,164.325c-5.843-7.612-10.604-16.051-14.057-25.005
						c-0.972-2.521-1.839-5.081-2.606-7.672c-0.182-0.616-1.148-0.354-0.964,0.266c2.738,9.249,6.794,18.104,12.028,26.207
						c1.486,2.3,3.068,4.537,4.735,6.709C448.579,165.333,449.448,164.836,449.056,164.325z"/>
					<path style="fill:#A0B4DB;" d="M436.388,193.799c-8.294-5.657-13.831-14.287-18.459-23.008
						c-1.319-2.486-2.577-5.003-3.827-7.524c-0.286-0.577-1.149-0.071-0.863,0.505c4.466,9.001,9.099,18.23,16.205,25.481
						c1.967,2.007,4.119,3.826,6.44,5.409C436.416,195.026,436.917,194.16,436.388,193.799z"/>
					<path style="fill:#A0B4DB;" d="M421.252,225.519c-6.316-6.22-11.462-13.587-15.13-21.658c-1.055-2.321-1.979-4.7-2.781-7.12
						c-0.202-0.608-1.168-0.347-0.964,0.266c2.841,8.573,7.26,16.583,12.992,23.561c1.624,1.977,3.354,3.863,5.176,5.658
						C421.004,226.678,421.712,225.971,421.252,225.519z"/>
					<path style="fill:#A0B4DB;" d="M492.1,129.236c-6.977,3.794-14.432,6.645-22.158,8.485c-0.626,0.149-0.361,1.113,0.266,0.964
						c7.806-1.859,15.347-4.752,22.396-8.586C493.17,129.792,492.666,128.928,492.1,129.236z"/>
					<path style="fill:#A0B4DB;" d="M491.531,159.645c-8.173,3.813-16.868,6.488-25.77,7.936c-2.56,0.416-5.135,0.725-7.72,0.935
						c-0.637,0.052-0.642,1.052,0,1c9.193-0.75,18.27-2.766,26.903-6.018c2.402-0.905,4.767-1.905,7.092-2.99
						C492.618,160.237,492.111,159.375,491.531,159.645z"/>
					<path style="fill:#A0B4DB;" d="M482.505,190.2c-9.339,3.156-19.071,5.114-28.907,5.78c-2.794,0.189-5.594,0.273-8.394,0.259
						c-0.644-0.003-0.644,0.997,0,1c9.904,0.05,19.813-1.171,29.405-3.643c2.75-0.709,5.472-1.522,8.162-2.431
						C483.377,190.96,483.117,189.993,482.505,190.2z"/>
					<path style="fill:#A0B4DB;" d="M461.058,223.352c-7.651,2.539-15.688,3.83-23.75,3.789c-2.309-0.012-4.615-0.135-6.912-0.359
						c-0.64-0.063-0.636,0.938,0,1c8.107,0.793,16.331,0.255,24.266-1.587c2.249-0.522,4.47-1.152,6.661-1.879
						C461.932,224.114,461.671,223.148,461.058,223.352z"/>
				</g>
			</g>
			<g>
				<path style="fill:#B8C9EA;" d="M398.869,312.639c34.096,3.453,69.41,0.693,100.895-12.842
					c31.485-13.535,58.799-38.68,70.483-70.898c-34.461-8.286-72.063-8.837-104.725,4.926
					C432.859,247.587,406.81,278.097,398.869,312.639z"/>
				<g>
					<path style="fill:#A0B4DB;" d="M563.156,233.416c-8.653,6.164-17.904,11.427-27.376,16.218
						c-9.549,4.829-19.32,9.201-29.063,13.621c-10.491,4.76-20.982,9.519-31.473,14.279c-10.444,4.738-20.888,9.477-31.332,14.215
						c-10.491,4.759-20.982,9.519-31.473,14.279c-1.311,0.595-2.623,1.19-3.934,1.785c-0.585,0.265-0.078,1.128,0.505,0.863
						c10.491-4.76,20.982-9.519,31.473-14.279c10.444-4.738,20.888-9.477,31.332-14.215c10.491-4.76,20.982-9.519,31.473-14.279
						c9.843-4.466,19.727-8.855,29.427-13.626c9.525-4.684,18.876-9.771,27.675-15.725c1.1-0.744,2.189-1.502,3.271-2.273
						C564.181,233.909,563.682,233.042,563.156,233.416z"/>
					<path style="fill:#A0B4DB;" d="M539.656,228.077c-3.679,6.037-5.979,12.83-6.759,19.854c-0.071,0.639,0.93,0.634,1,0
						c0.759-6.844,3.04-13.471,6.622-19.349C540.855,228.031,539.991,227.527,539.656,228.077z"/>
					<path style="fill:#A0B4DB;" d="M513.4,228.224c-3.504,7.316-5.903,15.144-7.054,23.176c-0.326,2.277-0.556,4.565-0.689,6.862
						c-0.037,0.643,0.963,0.641,1,0c0.458-7.934,2.119-15.782,4.912-23.223c0.804-2.143,1.706-4.246,2.695-6.31
						C514.54,228.151,513.678,227.643,513.4,228.224z"/>
					<path style="fill:#A0B4DB;" d="M482.739,233.71c-3.985,9.039-6.286,18.783-6.736,28.653c-0.129,2.825-0.102,5.654,0.071,8.477
						c0.039,0.639,1.04,0.644,1,0c-0.597-9.728,0.615-19.531,3.574-28.819c0.845-2.653,1.831-5.259,2.955-7.807
						C483.86,233.631,482.999,233.122,482.739,233.71z"/>
					<path style="fill:#A0B4DB;" d="M451.605,248.612c-3.083,9.377-4.241,19.376-3.374,29.21c0.244,2.77,0.648,5.524,1.204,8.248
						c0.129,0.63,1.093,0.363,0.964-0.266c-1.945-9.542-1.929-19.468,0.049-29.004c0.556-2.679,1.267-5.323,2.122-7.922
						C452.771,248.265,451.806,248.002,451.605,248.612z"/>
					<path style="fill:#A0B4DB;" d="M426.368,296.702c-1.995-8.062-2.148-16.522-0.439-24.649c0.132-0.628-0.832-0.896-0.964-0.266
						c-1.747,8.306-1.6,16.941,0.439,25.181C425.558,297.592,426.523,297.327,426.368,296.702z"/>
					<path style="fill:#A0B4DB;" d="M440.554,309.036c-3.943-1.074-7.529-3.195-10.372-6.13c-0.449-0.463-1.155,0.244-0.707,0.707
						c2.958,3.055,6.71,5.27,10.813,6.388C440.91,310.17,441.175,309.205,440.554,309.036z"/>
					<path style="fill:#A0B4DB;" d="M477.466,301.607c-9.223-1.285-18.106-4.531-25.978-9.507c-0.546-0.345-1.048,0.52-0.505,0.863
						c7.937,5.017,16.917,8.312,26.217,9.607C477.829,302.659,478.102,301.695,477.466,301.607z"/>
					<path style="fill:#A0B4DB;" d="M514.484,288.357c-9.564,0.331-19.153-1.357-28.034-4.921c-2.516-1.01-4.966-2.179-7.343-3.482
						c-0.565-0.31-1.07,0.554-0.505,0.863c8.508,4.664,17.962,7.509,27.628,8.336c2.745,0.235,5.501,0.299,8.254,0.204
						C515.126,289.335,515.129,288.334,514.484,288.357z"/>
					<path style="fill:#A0B4DB;" d="M532.366,273.324c-8.462-0.759-16.701-3.414-24.025-7.716c-0.556-0.327-1.06,0.537-0.505,0.863
						c7.482,4.395,15.888,7.077,24.53,7.853C533.007,274.381,533.003,273.381,532.366,273.324z"/>
					<path style="fill:#A0B4DB;" d="M546.604,257.212c-4.278-0.194-8.479-1.139-12.436-2.775c-0.594-0.246-0.853,0.721-0.266,0.964
						c4.039,1.669,8.337,2.613,12.702,2.81C547.248,258.241,547.246,257.241,546.604,257.212z"/>
				</g>
			</g>
			<g>
				<path style="fill:#B8C9EA;" d="M384.155,264.792c2.819-39.567-6.144-79.899-25.456-114.547
					c-19.312-34.648-48.901-63.484-84.036-81.896c-7.461,29.462-7.041,61.476,1.03,90.777c7.09,25.739,20.177,49.906,38.474,69.348
					C332.464,247.914,358.388,257.806,384.155,264.792z"/>
				<g>
					<path style="fill:#A0B4DB;" d="M377.845,250.953c-7.467-10.353-14.889-20.739-22.163-31.229
						c-7.281-10.501-14.416-21.106-21.292-31.877c-6.858-10.741-13.459-21.649-19.682-32.771
						c-6.199-11.081-12.022-22.377-17.332-33.913c-5.332-11.583-10.141-23.41-14.291-35.469c-0.512-1.487-1.013-2.977-1.505-4.47
						c-0.2-0.608-1.166-0.348-0.964,0.266c3.972,12.056,8.604,23.889,13.769,35.483c5.187,11.642,10.91,23.041,17.03,34.22
						c6.141,11.218,12.683,22.214,19.496,33.036c6.808,10.812,13.887,21.451,21.128,31.977
						c7.266,10.564,14.695,21.014,22.182,31.422c0.919,1.277,1.839,2.554,2.759,3.83
						C377.354,251.975,378.222,251.476,377.845,250.953z"/>
					<path style="fill:#A0B4DB;" d="M302.183,92.328c-0.037-0.64-1.037-0.644-1,0c0.511,8.926,1.02,17.976-0.729,26.807
						c-0.125,0.629,0.839,0.898,0.964,0.266C303.186,110.476,302.7,101.351,302.183,92.328z"/>
					<path style="fill:#A0B4DB;" d="M323.75,109.937c-0.037-0.64-1.038-0.644-1,0c0.644,10.994-0.22,22.062-2.595,32.817
						c-0.664,3.007-1.446,5.987-2.338,8.934c-0.187,0.617,0.778,0.881,0.964,0.266c3.192-10.548,4.935-21.529,5.155-32.547
						C324,116.249,323.935,113.09,323.75,109.937z"/>
					<path style="fill:#A0B4DB;" d="M343.701,137.321c-0.162,11.277-1.929,22.511-5.249,33.291c-0.942,3.059-2.009,6.077-3.193,9.05
						c-0.238,0.598,0.729,0.857,0.964,0.266c4.204-10.562,6.887-21.707,7.959-33.024c0.302-3.186,0.472-6.383,0.518-9.583
						C344.71,136.677,343.71,136.677,343.701,137.321z"/>
					<path style="fill:#A0B4DB;" d="M362.121,165.807c-0.014-0.643-1.014-0.645-1,0c0.241,11.216-1.868,22.438-6.145,32.809
						c-1.205,2.922-2.592,5.768-4.132,8.528c-0.314,0.563,0.549,1.067,0.863,0.505c5.532-9.912,8.963-20.945,10.057-32.243
						C362.074,172.217,362.19,169.011,362.121,165.807z"/>
					<path style="fill:#A0B4DB;" d="M373.664,200.165c0.23,8.091-1.753,16.157-5.72,23.214c-0.316,0.562,0.548,1.066,0.863,0.505
						c4.05-7.204,6.092-15.456,5.857-23.719C374.646,199.523,373.646,199.521,373.664,200.165z"/>
					<path style="fill:#A0B4DB;" d="M360.655,233.656c-5.081,2.881-10.66,4.778-16.441,5.608c-0.634,0.091-0.365,1.055,0.266,0.964
						c5.862-0.842,11.528-2.788,16.68-5.709C361.719,234.202,361.216,233.337,360.655,233.656z"/>
					<path style="fill:#A0B4DB;" d="M343.184,213.362c-9.184,2.559-18.876,3.139-28.297,1.662c-0.63-0.099-0.901,0.865-0.266,0.964
						c9.603,1.506,19.462,0.948,28.828-1.662C344.069,214.154,343.806,213.189,343.184,213.362z"/>
					<path style="fill:#A0B4DB;" d="M327.499,187.339c-8.757,1.255-17.742,0.896-26.371-1.049c-2.426-0.547-4.822-1.22-7.18-2.008
						c-0.612-0.204-0.874,0.761-0.266,0.964c8.519,2.848,17.551,4.132,26.526,3.763c2.53-0.104,5.051-0.347,7.557-0.706
						C328.399,188.212,328.129,187.248,327.499,187.339z"/>
					<path style="fill:#A0B4DB;" d="M310.007,157.634c-7.984-0.368-15.889-2.3-23.135-5.678c-2.064-0.962-4.071-2.041-6.017-3.224
						c-0.551-0.335-1.055,0.529-0.505,0.863c6.974,4.239,14.775,7.1,22.841,8.354c2.258,0.351,4.534,0.579,6.816,0.685
						C310.65,158.663,310.649,157.663,310.007,157.634z"/>
					<path style="fill:#A0B4DB;" d="M292.545,124.711c-7.086-1.979-12.919-6.684-18.52-11.25c-0.495-0.403-1.206,0.3-0.707,0.707
						c5.738,4.678,11.703,9.48,18.962,11.508C292.9,125.849,293.165,124.884,292.545,124.711z"/>
				</g>
			</g>
			<g>
				<path style="fill:#B8C9EA;" d="M224.73,212.167c31.574-8.239,66.174-4.255,95.05,10.944
					c28.876,15.199,51.747,41.466,62.829,72.158c-18.54,13.562-42.997,16.633-65.584,12.451
					c-22.587-4.182-43.245-16.649-58.941-33.42C242.387,257.53,231.434,234.137,224.73,212.167z"/>
				<g>
					<path style="fill:#A0B4DB;" d="M375.765,291.002c-10.064-4.156-20.135-8.294-30.186-12.482
						c-9.326-3.885-18.626-7.836-27.835-11.992c-9.193-4.148-18.298-8.5-27.227-13.192c-8.845-4.648-17.519-9.631-25.904-15.068
						c-8.402-5.449-16.511-11.356-24.174-17.806c-0.95-0.8-1.893-1.608-2.829-2.424c-0.483-0.421-1.193,0.284-0.707,0.707
						c7.561,6.586,15.577,12.638,23.908,18.214c8.367,5.6,17.046,10.724,25.911,15.491c8.914,4.794,18.017,9.229,27.219,13.442
						c9.156,4.192,18.411,8.165,27.698,12.057c9.954,4.171,19.94,8.268,29.915,12.387c1.315,0.543,2.63,1.086,3.945,1.629
						C376.093,292.211,376.352,291.244,375.765,291.002z"/>
					<path style="fill:#A0B4DB;" d="M260.661,230.229c-1.293-6.003-3.395-11.81-6.232-17.256c-0.297-0.571-1.161-0.066-0.863,0.505
						c2.798,5.372,4.856,11.097,6.131,17.017C259.833,231.123,260.797,230.857,260.661,230.229z"/>
					<path style="fill:#A0B4DB;" d="M279.232,216.212c-0.272-0.583-1.135-0.075-0.863,0.505c4.156,8.896,7.1,18.334,8.763,28.01
						c0.109,0.633,1.073,0.365,0.964-0.266C286.417,234.696,283.425,225.188,279.232,216.212z"/>
					<path style="fill:#A0B4DB;" d="M311.983,232.693c-0.786-2.305-1.672-4.573-2.642-6.806c-0.256-0.589-1.117-0.08-0.863,0.505
						c3.374,7.769,5.619,16.041,6.617,24.453c0.282,2.375,0.463,4.76,0.551,7.15c0.024,0.641,1.024,0.645,1,0
						C316.327,249.392,314.761,240.843,311.983,232.693z"/>
					<path style="fill:#A0B4DB;" d="M341.552,246.672c-0.166-0.621-1.13-0.358-0.964,0.266c2.038,7.645,2.381,15.693,0.978,23.481
						c-0.113,0.629,0.85,0.899,0.964,0.266C343.965,262.716,343.638,254.497,341.552,246.672z"/>
					<path style="fill:#A0B4DB;" d="M340.684,282.526c-4.762,6.084-10.661,11.241-17.339,15.128c-1.9,1.106-3.859,2.104-5.867,2.999
						c-0.587,0.262-0.078,1.124,0.505,0.863c7.097-3.165,13.578-7.683,19.006-13.244c1.559-1.598,3.027-3.282,4.402-5.04
						C341.783,282.732,341.08,282.02,340.684,282.526z"/>
					<path style="fill:#A0B4DB;" d="M313.991,270.385c-6.84,6.029-14.799,10.781-23.357,13.931c-2.392,0.88-4.829,1.634-7.299,2.265
						c-0.623,0.159-0.359,1.124,0.266,0.964c8.961-2.29,17.486-6.245,25.014-11.619c2.109-1.505,4.139-3.121,6.083-4.835
						C315.181,270.666,314.472,269.961,313.991,270.385z"/>
					<path style="fill:#A0B4DB;" d="M286.321,256.806c-8.052,3.691-16.914,5.472-25.765,5.212c-0.644-0.019-0.643,0.981,0,1
						c9.035,0.264,18.055-1.584,26.27-5.349C287.41,257.402,286.902,256.54,286.321,256.806z"/>
					<path style="fill:#A0B4DB;" d="M261.239,240.341c-6.219,1.106-12.581,1.243-18.844,0.437c-0.637-0.082-0.63,0.919,0,1
						c6.357,0.819,12.801,0.649,19.11-0.473C262.137,241.193,261.869,240.229,261.239,240.341z"/>
				</g>
			</g>
		</g>
		<g>
			<g>
				<path style="fill:#B8C9EA;" d="M135.4,200.501c-1.683-1.446-3.678-2.549-5.845-3.062c-2.558-0.606-5.213-0.307-7.697,0.482
					c-8.771,2.785-15.472,10.165-19.18,18.379c-4.491,9.947-4.73,21.21-3.331,31.868c0.179,1.362,0.383,2.72,0.608,4.075
					c0.022,0.132,0.086,0.216,0.164,0.274c0.003,0.188,0.109,0.357,0.358,0.391c2.795,0.377,5.543-0.194,8.174-1.133
					c2.461-0.879,4.854-1.98,7.155-3.216c4.553-2.444,8.774-5.514,12.524-9.068c7.093-6.724,13.155-15.918,12.802-26.066
					C140.963,208.558,139.153,203.726,135.4,200.501z"/>
				<path style="fill:#B8C9EA;" d="M60.605,184.275c0.307-11.677,5.267-23.378,14.199-30.906c3.981-3.356,8.926-5.916,14.132-5.814
					c5.989,0.117,11.574,3.884,14.676,9.008c3.102,5.125,3.907,11.418,3.083,17.351c-1.311,9.442-6.51,18.001-13.067,24.92
					c-5.918,6.245-12.924,11.309-19.961,16.205c-1.871,1.302-2.708,1.984-4.076-0.148c-1.129-1.759-2.154-3.589-3.09-5.458
					c-1.848-3.694-3.322-7.579-4.337-11.583C61.043,193.421,60.485,188.845,60.605,184.275z"/>
				<path style="fill:#B8C9EA;" d="M32.105,233.825c-7.4-6.449-11.705-16.156-12.078-25.965c-0.134-3.527,0.226-7.128,1.585-10.386
					c1.359-3.258,3.798-6.153,7.026-7.582c4.013-1.776,8.829-1.079,12.641,1.093c3.812,2.173,6.723,5.664,8.977,9.429
					c3.543,5.919,5.634,12.616,6.863,19.404c0.69,3.815,1.116,7.673,1.418,11.537c0.151,1.934,0.27,3.871,0.376,5.808
					c0.055,1.001,0.419,2.685-0.247,3.57c-1.334,1.772-6.461,1.055-8.389,0.876c-3.165-0.294-6.282-1.074-9.221-2.28
					C37.801,237.995,34.757,236.137,32.105,233.825z"/>
				<path style="fill:#B8C9EA;" d="M31.127,307.348c-4.725-10.817-5.559-23.502-1.22-34.479c1.979-5.008,5.325-9.879,10.372-11.757
					c6.066-2.257,13.164,0.559,17.424,5.432c4.259,4.873,6.135,11.39,7.055,17.797c1.671,11.641,0.495,23.659-3.272,34.792
					c-0.942,2.783-2.045,5.512-3.307,8.166c-0.794,1.669-2.146,6.144-4.476,5.825c-2.163-0.296-4.975-3.356-6.587-4.729
					c-2.079-1.771-4.052-3.668-5.893-5.686C37.076,318.163,33.593,312.993,31.127,307.348z"/>
				<path style="fill:#B8C9EA;" d="M125.757,315.373c3.666-6.84,5.523-14.564,5.997-22.31c0.266-4.347,0.078-8.849-1.704-12.823
					c-1.782-3.974-5.436-7.334-9.772-7.733c-3.508-0.323-6.997,1.324-9.505,3.797c-2.508,2.473-4.145,5.699-5.379,8.998
					c-3.451,9.223-3.949,19.333-2.299,28.99c0.788,4.612,1.821,9.945,4.016,14.123c2.346,4.465,6.636,1.011,9.256-1.239
					C120.204,323.881,123.371,319.825,125.757,315.373z"/>
			</g>
			<g>
				<path style="fill:#B8C9EA;" d="M42.494,360.345v47.131c0,20.998,17.022,38.02,38.02,38.02c20.998,0,38.02-17.022,38.02-38.02
					v-47.131H42.494z"/>
				<polygon style="fill:#92A9D1;" points="118.533,374.062 57.359,374.062 118.533,387.957 				"/>
			</g>
			<g>
				<path style="fill:none;stroke:#92A9D1;stroke-linecap:round;stroke-linejoin:round;stroke-miterlimit:10;" d="M118.797,299.974
					c1.769,7.017-0.357,14.469-3.59,20.943c-3.233,6.474-7.561,12.364-10.641,18.913s-4.854,14.153-2.594,21.027"/>
				<path style="fill:none;stroke:#92A9D1;stroke-linecap:round;stroke-linejoin:round;stroke-miterlimit:10;" d="M86.201,179.208
					c-11.395,11.017-15.57,27.816-14.981,43.655c0.589,15.839,5.352,31.176,9.432,46.491c4.081,15.316,7.533,31.207,5.438,46.918
					c-1.962,14.713-8.73,29.486-4.93,43.834"/>
				<path style="fill:none;stroke:#92A9D1;stroke-linecap:round;stroke-linejoin:round;stroke-miterlimit:10;" d="M68.112,361.471
					c-2.729-13.02-12.368-23.381-17.881-35.488c-5.917-12.995-6.919-27.611-7.831-41.861"/>
				<path style="fill:none;stroke:#92A9D1;stroke-linecap:round;stroke-linejoin:round;stroke-miterlimit:10;" d="M84.528,285.789
					c-0.652-8.647,3.432-17.394,8.41-24.495c4.979-7.1,11.261-13.174,16.787-19.857c5.526-6.683,10.413-14.273,11.819-22.83"/>
				<path style="fill:none;stroke:#92A9D1;stroke-linecap:round;stroke-linejoin:round;stroke-miterlimit:10;" d="M76.267,253.02
					c-6.94-7.198-16.259-11.188-24.606-16.692c-8.347-5.504-16.198-13.621-16.589-23.612"/>
			</g>
		</g>
		<g>
			<g>
				<polygon style="fill:#B8C9EA;" points="627.53,368.127 695.191,368.127 681.191,445.495 641.53,445.495 				"/>
				<polygon style="fill:#92A9D1;" points="692.791,381.393 647.241,381.393 690.613,393.429 				"/>
			</g>
			<g>
				<g>
					<path style="fill:#B8C9EA;" d="M676.74,278.301c0.751-6.93,2.214-13.859,5.232-20.142c3.019-6.283,7.694-11.912,13.818-15.242
						c6.124-3.33,13.764-4.147,20.152-1.358c6.697,2.924,11.375,9.503,13.129,16.597c1.755,7.094,0.857,14.634-1.311,21.613
						c-3.3,10.623-9.468,20.212-16.981,28.416c-3.807,4.157-7.964,7.982-12.326,11.548c-2.185,1.786-4.422,3.507-6.696,5.177
						c-1.713,1.258-3.996,3.57-6.322,3.329c-4.31-0.446-5.445-9.99-6.254-13.3c-1.39-5.691-2.311-11.496-2.75-17.337
						C675.948,291.177,676.046,284.707,676.74,278.301z"/>
					<path style="fill:#B8C9EA;" d="M624.473,268.555c-6.572-15.35-8.925-32.391-7.46-49.024c0.595-6.754,1.854-13.589,5.115-19.533
						c3.261-5.944,8.784-10.928,15.439-12.221c9.338-1.814,18.635,3.867,24.934,10.995c12.797,14.483,17.058,35.167,14.462,54.319
						c-1.964,14.488-7.514,28.247-14.649,40.927c-1.761,3.129-3.524,6.388-5.618,9.31c-2.452,3.422-4.531,0.933-7.142-1.193
						c-5.193-4.229-9.861-9.096-13.921-14.42C631.141,281.821,627.389,275.366,624.473,268.555z"/>
					<path style="fill:#B8C9EA;" d="M639.988,315.797c-0.943-8.34-4.518-16.547-10.774-22.143c-2.627-2.35-5.905-4.276-9.429-4.206
						c-4.563,0.09-8.545,3.64-10.244,7.875s-1.476,9.007-0.606,13.487c1.367,7.036,4.317,13.831,8.977,19.276
						c2.396,2.8,5.248,5.219,8.424,7.09c2.019,1.19,7.404,4.483,9.808,3.158c2.461-1.356,3.015-8.586,3.416-11.06
						C640.284,324.826,640.496,320.283,639.988,315.797z"/>
				</g>
				<g>
					<path style="fill:none;stroke:#92A9D1;stroke-linecap:round;stroke-linejoin:round;stroke-miterlimit:10;" d="M703.503,272.098
						c-13.815,30.278-22.346,62.866-25.139,96.03"/>
					<path style="fill:none;stroke:#92A9D1;stroke-linecap:round;stroke-linejoin:round;stroke-miterlimit:10;" d="M644.133,228.229
						c9.421,46.012,14.981,92.932,14.652,139.898"/>
					<path style="fill:none;stroke:#92A9D1;stroke-linecap:round;stroke-linejoin:round;stroke-miterlimit:10;" d="M623.306,311.625
						c8.689,19.074,17.079,36.814,22.369,56.584"/>
				</g>
			</g>
		</g>
		<g>
			
				<path style="fill:none;stroke:#B8C9EA;stroke-linecap:round;stroke-linejoin:round;stroke-miterlimit:10;stroke-dasharray:12,10;" d="
				M239.743,20.976c-24.749,27.726-51.074,56.53-86.192,68.694c-17.606,6.098-38.667,7.082-53.446-4.264
				C86.794,75.188,81.67,55.59,88.276,40.164c3.809-8.894,12.514-16.72,22.121-15.565c9.145,1.1,15.648,9.888,17.905,18.818
				c3.055,12.09,0.288,25.158-5.72,36.085s-15.039,19.918-24.814,27.66c-18.827,14.911-42.838,26.017-66.426,21.502"/>
			
				<path style="fill:none;stroke:#B8C9EA;stroke-linecap:round;stroke-linejoin:round;stroke-miterlimit:10;stroke-dasharray:12,10;" d="
				M709.244,172.784c3.487-29.645-5.118-60.534-23.429-84.107c-7.783-10.019-17.53-18.924-29.397-23.411
				c-11.867-4.487-26.077-3.974-36.372,3.439c-10.296,7.414-15.234,22.354-9.425,33.633c3.892,7.556,12.864,12.689,21.106,10.612
				c8.669-2.185,14.123-11.584,14.057-20.524c-0.066-8.94-4.565-17.292-10.094-24.318c-17.839-22.668-46.438-34.564-74.913-39.176
				c-54.938-8.898-113.424,7.114-156.168,42.756"/>
		</g>
	</g>
	<g>
		<g>
			<g>
				<polygon style="fill:#B1705B;" points="156.897,429.29 155.742,417.454 171.796,417.454 170.081,430.438 167.889,437.824 
					161.348,439.148 157.844,436.111 				"/>
				<path style="fill:#8A94DB;" d="M155.263,445.495h35.973c1.318,0,2.387-1.069,2.387-2.387v-1.801c0-0.93-0.54-1.775-1.383-2.166
					l-19.575-9.079c-0.86-0.399-1.875-0.251-2.585,0.376l-4.532,4.003c-0.923,0.815-2.316,0.794-3.214-0.048l-5.438-5.102
					c-0.443-0.415-1.027-0.646-1.634-0.646l0,0c-1.319,0-2.388,1.069-2.388,2.387v12.077
					C152.876,444.426,153.945,445.495,155.263,445.495z"/>
			</g>
			<g>
				<polygon style="fill:#B1705B;" points="205.717,429.29 204.562,417.454 220.616,417.454 218.901,430.438 216.709,437.824 
					210.168,439.148 206.664,436.111 				"/>
				<path style="fill:#8A94DB;" d="M204.083,445.495h35.973c1.319,0,2.388-1.069,2.388-2.387v-1.801c0-0.93-0.54-1.775-1.383-2.166
					l-19.575-9.079c-0.86-0.399-1.874-0.251-2.585,0.376l-4.532,4.003c-0.923,0.815-2.316,0.794-3.214-0.048l-5.438-5.102
					c-0.442-0.415-1.027-0.646-1.633-0.646l0,0c-1.319,0-2.388,1.069-2.388,2.387v12.077
					C201.696,444.426,202.764,445.495,204.083,445.495z"/>
			</g>
		</g>
		<polygon style="fill:#C8C3CA;" points="171.296,303.905 259.456,303.905 239.678,203.596 189.794,203.596 		"/>
		<g>
			<path style="fill:#B1705B;" d="M248.866,79.595c-0.76,4.62-1.54,9.24-2.35,13.85c-0.3,1.74-0.61,3.48-0.93,5.21
				c-0.3,1.61-0.6,3.21-0.91,4.81c-0.31,1.6-0.64,3.21-1.28,4.71c-0.65,1.5-1.66,2.89-3.06,3.73c-2.35,1.39-5.37,0.99-7.91,0
				c-4.39-1.71-8.05-4.98-10.77-8.81c-1.34-1.88-2.46-3.88-3.44-5.96c-0.08-0.18-0.17-0.37-0.25-0.56c2.47-0.95,4.22-3.35,4.22-6.16
				c0-1.44-0.46-2.77-1.26-3.86c3.7-2.85,6.54-6.8,8.05-11.22c0.88,1.62,2.29,2.73,3.96,3.52c1.66,0.79,3.49,1.17,5.32,1.37
				c1.12,0.12,2.32,0.16,3.29-0.42c0.96-0.58,1.47-2.01,0.74-2.87C244.206,78.425,246.476,79.365,248.866,79.595z"/>
			<path style="fill:#B1705B;" d="M222.185,90.412c0,3.651-2.959,6.61-6.61,6.61s-6.61-2.959-6.61-6.61
				c0-3.651,2.959-6.61,6.61-6.61S222.185,86.762,222.185,90.412z"/>
			<path style="fill:#B1705B;" d="M237.616,122.405l-14.37,14.39l-13.58-17.92c3.56-6.74,5.98-14.37,7.02-21.95
				c0.45-0.07,0.88-0.19,1.29-0.36c0.25,0.56,0.51,1.11,0.78,1.66c0.85,1.69,1.81,3.32,2.9,4.87c2.72,3.83,6.38,7.1,10.77,8.81
				c1.35,0.53,2.84,0.89,4.29,0.9c-0.02,2.4,0.14,4.8,0.49,7.17C237.316,120.785,237.456,121.595,237.616,122.405z"/>
			<g>
				<path style="fill:none;stroke:#444145;stroke-linecap:round;stroke-linejoin:round;stroke-miterlimit:10;" d="M238.855,82.893
					c-0.219,2.356-0.633,4.694-1.237,6.982c0.84-0.37,1.89-0.266,2.594,0.323c0.704,0.589,0.985,1.66,0.594,2.49
					c-0.391,0.83-1.46,1.294-2.311,0.948"/>
				<path style="fill:none;stroke:#444145;stroke-linecap:round;stroke-linejoin:round;stroke-miterlimit:10;" d="M230.082,99.384
					c2.845,2.15,6.377,3.378,9.943,3.454"/>
				<path style="fill:none;stroke:#444145;stroke-width:2;stroke-linecap:round;stroke-linejoin:round;stroke-miterlimit:10;" d="
					M243.661,85.227c-0.062,0.451-0.124,0.903-0.186,1.354"/>
				<path style="fill:none;stroke:#444145;stroke-width:2;stroke-linecap:round;stroke-linejoin:round;stroke-miterlimit:10;" d="
					M233.812,83.688c-0.062,0.369-0.124,0.739-0.186,1.108"/>
			</g>
			<path style="fill:#9E5942;" d="M224.544,92.946c-0.144,1.458,1.906,2.854,4.579,3.118c2.673,0.264,4.957-0.704,5.101-2.162
				c0.144-1.458-1.906-2.854-4.579-3.118C226.971,90.52,224.688,91.488,224.544,92.946z"/>
			<path style="fill:#9E5942;" d="M246.516,93.445c-0.3,1.74-0.61,3.48-0.93,5.21c-2.34-0.41-4.05-1.69-3.92-3.03
				C241.806,94.225,243.956,93.265,246.516,93.445z"/>
			<path style="fill:none;stroke:#9E5942;stroke-linecap:round;stroke-linejoin:round;stroke-miterlimit:10;" d="M213.462,87.32
				c2.936,1.421,5.08,4.369,5.526,7.6c-0.389-0.894-1.066-1.717-1.905-2.214c-0.839-0.497-1.837-0.722-2.808-0.634"/>
			<path style="fill:#9E5942;" d="M237.206,119.975c-3.84-0.43-7.61-1.48-10.62-3.83c-2.37-1.86-4.12-4.42-5.4-7.14
				c-1.56-3.37-2.45-7.07-2.43-10.78c0.85,1.69,1.81,3.32,2.9,4.87c2.72,3.83,6.38,7.1,10.77,8.81c1.35,0.53,2.84,0.89,4.29,0.9
				C236.696,115.205,236.856,117.605,237.206,119.975z"/>
			<path style="fill:#444145;" d="M258.166,65.695c-0.07,0.74-0.43,1.42-0.83,2.04c-1.4,2.16-3.54,4.14-5.92,5.13
				c1.29,0.02,2.52,0.87,3,2.07c0.47,1.19,0.15,2.66-0.77,3.55c-0.98,0.95-2.44,1.19-3.8,1.17c-2.75-0.04-5.38-1.03-7.56-2.72
				c0.73,0.86,0.22,2.29-0.74,2.87c-0.97,0.58-2.17,0.54-3.29,0.42c-1.83-0.2-3.66-0.58-5.32-1.37c-1.67-0.79-3.08-1.9-3.96-3.52
				c-1.51,4.42-4.35,8.37-8.05,11.22c-1.19-1.67-3.14-2.75-5.35-2.75c-3.65,0-6.61,2.96-6.61,6.61s2.96,6.61,6.61,6.61
				c1.02,0,1.98-0.23,2.84-0.65c-0.38,1.51-0.79,2.98-1.16,4.38c-0.45,1.71-1.32,3.65-3.06,4.02c-1.78,0.38-3.45-1.2-4.04-2.92
				c-0.59-1.72-0.47-3.6-0.77-5.39c-0.55-3.35-2.53-6.25-3.87-9.37c-1.29-3.01-1.98-6.33-1.64-9.59c0.34-3.26,1.78-6.45,4.25-8.61
				c2.47-2.15,6.01-2.94,9.17-2.06c-0.18-1.54,0.65-3.08,1.87-4.03c1.22-0.96,2.78-1.38,4.32-1.52c3.1-0.28,6.18,0.53,9.25,1.09
				c3.06,0.56,6.33,0.86,9.2-0.36c1.36-0.58,2.58-1.48,4-1.89s3.2-0.15,3.95,1.12c0.55,0.95,0.35,2.19-0.21,3.13
				c-0.57,0.94-1.41,1.8-2.26,2.48c2.29-1.78,5.06-2.94,7.93-3.34c0.68-0.09,1.42-0.13,1.99,0.24
				C257.966,64.155,258.236,64.955,258.166,65.695z"/>
			<path style="fill:#444145;" d="M218.416,96.375c-0.06,0.26-0.13,0.51-0.2,0.76c-0.08-0.18-0.17-0.37-0.25-0.56
				C218.116,96.515,218.266,96.445,218.416,96.375z"/>
		</g>
		<g>
			<path style="fill:#A4ACE3;" d="M233.086,202.625c0.32,1.67,0.64,3.36,0.97,5.06c-1.11,3.67-2.29,7.32-3.54,10.96
				c-9,2.7-18.33,4.19-27.67,4.33c3.14-9.98,6.03-20.02,8.61-30.1c1.3-5.03,2.52-10.07,3.67-15.12l-14.08-58.53l8.62-0.35
				l13.58,17.92l14.37-14.39l7.01,2.51l-14.88,58.45C230.736,189.565,231.846,196.015,233.086,202.625z"/>
			<g>
				<path style="fill:none;stroke:#8790CF;stroke-linecap:round;stroke-linejoin:round;stroke-miterlimit:10;" d="M239.314,156.143
					c-8.556,15.526-22.609,27.951-39.067,34.541"/>
				<path style="fill:none;stroke:#8790CF;stroke-linecap:round;stroke-linejoin:round;stroke-miterlimit:10;" d="M235.21,191.286
					c-9.153,5.314-19.729,8.149-30.313,8.126"/>
			</g>
			<g>
				<path style="fill:#8A94DB;" d="M223.246,136.795l-5.86,9.07l-6.15-10.02l-10.19-16.62c2.84-0.26,5.72-0.35,8.62-0.35
					L223.246,136.795z"/>
				<path style="fill:#8A94DB;" d="M244.626,124.915l-8.84,11.63l-7.81,10.29l-4.73-10.04l14.37-14.39
					C240.096,122.605,242.496,123.535,244.626,124.915z"/>
			</g>
		</g>
		<g>
			<path style="fill:#8A94DB;" d="M231.736,398.535c-2.45,7.98-5.02,15.93-7.47,23.86c-7.9,0.86-15.93-0.01-23.7-1.69
				c0.93-7.99,1.99-16.02,3.16-24.04c3.47-23.58,8.01-47.17,13.58-70.17c-3.54-10.39-6.84-21.03-10.2-31.62
				c-2.07-6.56-4.17-13.09-6.37-19.53c-1.65,8.09-3.23,16.12-4.8,24.14c-1.82,9.25-3.63,18.49-5.52,27.81
				c-3.92,19.29-6.41,38.59-9.34,57.85c-1.92,12.67-4.03,25.32-6.85,37.95c-7.95,0.13-16-1.11-23.81-2.59
				c-1.6-31.15,1.95-63.05,10.87-92.94c-0.62-7.62-0.45-15.55,0.27-23.66h9.74c12.1-26.09,22.83-53.26,31.55-80.93
				c9.34-0.14,18.67-1.63,27.67-4.33c5.96,24.19,10.28,48.78,12.65,73.55c1.02,10.63,1.68,21.29,1.95,31.97
				C245.766,349.515,239.246,374.175,231.736,398.535z"/>
			<g>
				<path style="fill:none;stroke:#6F7AC7;stroke-linecap:round;stroke-linejoin:round;stroke-miterlimit:10;" d="M210.04,227.238
					c-1.385,14.292-7.548,40.804-10.445,53.658"/>
				<path style="fill:none;stroke:#6F7AC7;stroke-linecap:round;stroke-linejoin:round;stroke-miterlimit:10;" d="M189.194,327.632
					c-5.253,0.961-10.666,1.039-15.944,0.229"/>
				<path style="fill:none;stroke:#6F7AC7;stroke-linecap:round;stroke-linejoin:round;stroke-miterlimit:10;" d="M244.665,325.139
					c-4.897,0.825-9.863,1.237-14.829,1.23"/>
				<path style="fill:none;stroke:#6F7AC7;stroke-linecap:round;stroke-linejoin:round;stroke-miterlimit:10;" d="M217.628,225.74
					c-1.193,6.477-2.385,12.955-3.578,19.432c-0.332,1.806-0.687,3.667-1.699,5.199c-1.279,1.935-3.48,3.109-5.74,3.628
					s-4.609,0.457-6.928,0.392"/>
			</g>
		</g>
		<g>
			<g>
				<path style="fill:#FFFFFF;" d="M215.126,177.755c-9.81,43.21-25.19,85.95-43.83,126.15h-35.54l23.04-47.73
					c-6.76-19.34-2.85-42.11,9.54-58.42c-3.65-3.83-7.33-7.71-10.09-12.22c-2.77-4.51-4.59-9.78-4.15-15.05
					c0.36-4.36,2.22-8.44,4.2-12.34c4.93-9.71,10.84-18.98,18.18-27.04c3.51-3.85,7.48-7.51,12.38-9.3
					c3.94-1.43,8.02-2.2,12.19-2.58L215.126,177.755z"/>
				<path style="fill:#FFFFFF;" d="M310.286,172.835c-12.11,9.91-26.9,16.27-41.53,21.84c-2.92,1.11-6.03,2.23-9.09,1.63
					c-2.84-0.55-5.2-2.5-7.11-4.66c-1.9-2.17-3.49-4.61-5.53-6.65l12.429,118.91c-12.81-35.95-23.709-82.85-29.709-120.54
					l14.88-58.45c1.59,1.02,3.02,2.28,4.22,3.68c2.83,3.28,4.74,7.22,6.63,11.12c4.23,8.75,8.46,17.5,12.69,26.24
					c10.33-5.8,21.07-10.56,32.37-14.09C306.486,157.175,310.326,164.855,310.286,172.835z"/>
			</g>
			<g>
				<path style="fill:#B1705B;" d="M209.636,219.205c-0.02,0.38-0.09,0.82-0.43,1c-0.41,0.2-0.87-0.15-1.16-0.49
					c-0.89-1.06-1.48-2.38-1.66-3.76c-1.58,0.01-3.14-0.77-4.08-2.04c1.95,2.58,3.72,5.44,5.39,8.22c0.54,0.9,1.09,1.86,1.18,2.91
					c0.04,0.41-0.03,0.88-0.38,1.08c-0.43,0.25-0.96-0.09-1.28-0.47c-0.31-0.38-0.8-0.62-1.04-1.02c0.61,0.96,1.09,1.99,1.43,3.08
					c0.06,0.22,0.13,0.45,0.11,0.68c-0.01,0.23-0.12,0.46-0.32,0.58c-0.37,0.21-0.82-0.06-1.14-0.34c-0.79-0.68-1.52-1.43-2.17-2.24
					c0.38,0.73,0.74,1.64,0.93,2.45c0.06,0.26,0.11,0.53,0,0.77c-0.18,0.42-0.75,0.54-1.2,0.43c-0.58-0.14-1.07-0.55-1.48-0.99
					c-0.41-0.44-0.78-0.93-1.24-1.32c0.26,0.33,0.41,0.7,0.5,1.11s-0.06,0.91-0.44,1.08c-0.44,0.2-0.94-0.1-1.32-0.39
					c-4.15-3.13-8.57-9.58-10.9-14.63c3.86-2.1,7.12-5.28,9.43-9.05c2.66,1.13,6.69,4.19,8.53,5.84c0.8,0.72,1.61,1.45,2.12,2.4
					C209.836,215.625,209.746,217.465,209.636,219.205z"/>
				<g>
					<path style="fill:#9E5942;" d="M206.854,224.623c-1.921-2.774-3.694-5.647-5.313-8.607c-0.309-0.565-1.173-0.061-0.863,0.505
						c1.619,2.96,3.393,5.833,5.313,8.607C206.355,225.653,207.222,225.154,206.854,224.623z"/>
					<path style="fill:#9E5942;" d="M204.712,226.068c-2.072-2.64-4.009-5.384-5.814-8.214c-0.345-0.541-1.211-0.04-0.863,0.505
						c1.851,2.903,3.845,5.709,5.97,8.417C204.402,227.281,205.105,226.569,204.712,226.068z"/>
					<path style="fill:#9E5942;" d="M201.685,227.766c-2.154-2.636-4.096-5.438-5.821-8.373c-0.326-0.554-1.19-0.052-0.863,0.505
						c1.768,3.009,3.769,5.873,5.977,8.575C201.386,228.971,202.089,228.26,201.685,227.766z"/>
				</g>
			</g>
			<g>
				<path style="fill:#B1705B;" d="M323.406,162.155c-4.1,2.84-8.73,4.74-13.65,5.43c-1.03-5.01-3.52-9.7-7-13.51
					c2.67-5.76,7.13-10.82,12.55-14.08c4.16,2.06,7.81,5.29,10.41,9.13C325.836,153.465,325.056,158.135,323.406,162.155z"/>
				<g>
					<g>
						<path style="fill:#8A94DB;" d="M318.353,174.697L318.353,174.697c-2.27,0-4.111-1.84-4.111-4.11v-35.401h8.221v35.401
							C322.463,172.857,320.623,174.697,318.353,174.697z"/>
						<path style="fill:#8A94DB;" d="M322.503,121.294h-8.3c-1.076,0-1.949,0.872-1.949,1.949v9.994
							c0,1.076,0.872,1.949,1.949,1.949h8.3c1.076,0,1.949-0.872,1.949-1.949v-9.994
							C324.451,122.166,323.579,121.294,322.503,121.294z"/>
						<path style="fill:#8A94DB;" d="M330.506,133.738L330.506,133.738v-10.996l0,0c1.96,0,3.549,1.589,3.549,3.549v3.897
							C334.055,132.148,332.466,133.738,330.506,133.738z"/>
						<polygon style="fill:#8A94DB;" points="330.506,122.742 318.353,128.24 330.506,133.738 						"/>
						<path style="fill:#8A94DB;" d="M316.569,128.24c0,2.383-1.932,4.315-4.315,4.315c-2.383,0-4.315-1.932-4.315-4.315
							s1.932-4.315,4.315-4.315C314.637,123.925,316.569,125.857,316.569,128.24z"/>
					</g>
					<path style="fill:#6F7AC7;" d="M324.036,123.351v9.765c0,0.643,1,0.645,1,0v-9.765
						C325.036,122.708,324.036,122.707,324.036,123.351z"/>
					<path style="fill:#6F7AC7;" d="M311.902,123.351v9.693c0,0.644,1,0.645,1,0v-9.693
						C312.902,122.708,311.902,122.707,311.902,123.351z"/>
					<path style="fill:#6F7AC7;" d="M322.526,134.698h-8.329c-0.643,0-0.645,1,0,1h8.329
						C323.169,135.698,323.17,134.698,322.526,134.698z"/>
				</g>
				<path style="fill:#B1705B;" d="M323.404,162.156c-1.677-0.401-3.084-1.645-3.897-3.166c-0.813-1.521-1.073-3.293-0.975-5.015
					c0.098-1.722,0.538-3.406,1.06-5.05c0.597-1.881,1.346-3.775,2.749-5.164c2.074-0.42,4.335,0.221,5.88,1.666
					C328.775,151.371,327.061,157.436,323.404,162.156z"/>
			</g>
			<g>
				<g>
					<path style="fill:none;stroke:#C8C3CA;stroke-linecap:round;stroke-linejoin:round;stroke-miterlimit:10;" d="M168.816,197.875
						c4.74,6.89,10.5,13.18,16.99,18.45c1.08-0.39,2.12-0.87,3.13-1.42c3.86-2.1,7.12-5.28,9.43-9.05c0.47-0.75,0.89-1.54,1.28-2.34
						c-5.96-11.31-12.97-22.02-20.63-32.26c6.88-5.56,11.75-13.57,13.53-22.24s0.46-17.94-3.67-25.77"/>
					<path style="fill:none;stroke:#C8C3CA;stroke-linecap:round;stroke-linejoin:round;stroke-miterlimit:10;" d="M179.271,171.147
						c-3.039-1.061-6.385-1.228-9.515-0.474"/>
				</g>
				<g>
					<path style="fill:none;stroke:#C8C3CA;stroke-linecap:round;stroke-linejoin:round;stroke-miterlimit:10;" d="M246.129,166.687
						c0.514,7.73,1.028,15.459,1.542,23.189"/>
					<path style="fill:none;stroke:#C8C3CA;stroke-linecap:round;stroke-linejoin:round;stroke-miterlimit:10;" d="M261.694,169.586
						c3.618-2.092,7.352-3.984,11.178-5.667"/>
				</g>
			</g>
		</g>
		<g style="opacity:0.15;">
			<path style="fill:#522840;" d="M231.736,398.535c-2.45,7.98-5.02,15.93-7.47,23.86c-7.9,0.86-15.93-0.01-23.7-1.69
				c0.93-7.99,1.99-16.02,3.16-24.04C212.776,399.065,222.326,399.545,231.736,398.535z"/>
			<path style="fill:#522840;" d="M243.166,292.195c-12.05-1.9-24.44-1.05-36.06,2.68c-2.07-6.56-4.17-13.09-6.37-19.53
				c-1.65,8.09-3.23,16.12-4.8,24.14c-9.4,4.78-17.8,11.59-23.82,20.21c-6.98,9.99-10.59,22.49-8.98,34.57
				c1.62,12.12,8.48,23.03,17.94,30.88c-1.92,12.67-4.03,25.32-6.85,37.95c-7.95,0.13-16-1.11-23.81-2.59
				c-1.6-31.15,1.95-63.05,10.87-92.94c-0.62-7.62-0.45-15.55,0.27-23.66h9.74c11.08-23.89,21.01-48.7,29.3-73.96
				c0.19,0.06,0.38,0.06,0.56-0.02c0.38-0.17,0.53-0.67,0.44-1.08c-0.07-0.32-0.18-0.62-0.35-0.89c0.01-0.02,0.02-0.04,0.02-0.06
				c0.39,0.36,0.71,0.78,1.07,1.16c0.41,0.44,0.9,0.85,1.48,0.99c0.45,0.11,1.02-0.01,1.2-0.43c0.11-0.24,0.06-0.51,0-0.77
				c-0.19-0.81-0.55-1.72-0.93-2.45c0.65,0.81,1.38,1.56,2.17,2.24c0.32,0.28,0.77,0.55,1.14,0.34c0.2-0.12,0.31-0.35,0.32-0.58
				c0.02-0.23-0.05-0.46-0.11-0.68c-0.34-1.09-0.82-2.12-1.43-3.08c0.24,0.4,0.73,0.64,1.04,1.02c0.32,0.38,0.85,0.72,1.28,0.47
				c0.35-0.2,0.42-0.67,0.38-1.08c-0.09-1.05-0.64-2.01-1.18-2.91c-0.98-1.63-2-3.3-3.07-4.91c0.15-0.48,0.29-0.96,0.44-1.45
				c0.43,0.12,0.87,0.18,1.32,0.18c0.18,1.38,0.77,2.7,1.66,3.76c0.29,0.34,0.75,0.69,1.16,0.49c0.34-0.18,0.41-0.62,0.43-1
				c0.11-1.74,0.2-3.58-0.62-5.11c-0.51-0.95-1.32-1.68-2.12-2.4c-0.15-0.14-0.32-0.28-0.5-0.43c1.8-6.11,3.49-12.24,5.06-18.39
				c1.14,1.02,2.34,1.96,3.6,2.82c5.39,3.66,11.58,5.86,18.03,6.93c0.32,1.67,0.64,3.36,0.97,5.06c-1.11,3.67-2.29,7.32-3.54,10.96
				C236.476,242.835,240.796,267.425,243.166,292.195z"/>
		</g>
	</g>
	<g>
		<g>
			<g>
				<polygon style="fill:#B1705B;" points="548.423,429.29 549.578,417.454 533.523,417.454 535.238,430.438 537.431,437.824 
					543.972,439.148 547.476,436.111 				"/>
				<path style="fill:#8A94DB;" d="M550.056,445.495h-35.973c-1.319,0-2.387-1.069-2.387-2.387v-1.801
					c0-0.93,0.54-1.775,1.383-2.166l19.575-9.079c0.86-0.399,1.874-0.251,2.585,0.376l4.532,4.003
					c0.923,0.815,2.315,0.794,3.214-0.048l5.438-5.102c0.443-0.415,1.027-0.646,1.634-0.646l0,0c1.319,0,2.388,1.069,2.388,2.387
					v12.077C552.444,444.426,551.375,445.495,550.056,445.495z"/>
			</g>
			<g>
				<polygon style="fill:#B1705B;" points="590.423,429.29 591.578,417.454 575.523,417.454 577.238,430.438 579.431,437.824 
					585.972,439.148 589.476,436.111 				"/>
				<path style="fill:#8A94DB;" d="M592.056,445.495h-35.973c-1.319,0-2.387-1.069-2.387-2.387v-1.801
					c0-0.93,0.54-1.775,1.383-2.166l19.575-9.079c0.86-0.399,1.874-0.251,2.585,0.376l4.532,4.003
					c0.923,0.815,2.315,0.794,3.214-0.048l5.438-5.102c0.443-0.415,1.027-0.646,1.634-0.646l0,0c1.319,0,2.388,1.069,2.388,2.387
					v12.077C594.444,444.426,593.375,445.495,592.056,445.495z"/>
			</g>
		</g>
		<g>
			<path style="fill:#444145;" d="M589.106,103.485c-2.76,4.34-8.06,6.87-13.17,6.43c-0.48-3.74-0.62-7.53-0.4-11.29
				c0.48,0.11,0.98,0.17,1.49,0.17c3.82,0,6.91-3.1,6.91-6.91c0-3.81-3.09-6.9-6.91-6.9c-1.4,0-2.72,0.42-3.81,1.15
				c-1.69-2.58-2.54-5.71-2.34-8.79c-4.83,1.11-10.08-0.32-13.8-3.6c-2.85,2.64-6.65,4.1-10.53,4.19c-0.22,3.19-0.37,6.39-0.43,9.59
				c-2.4-2.96-3.39-7.1-2.58-10.82c-2.21-1.68-3.26-4.69-2.73-7.42c0.52-2.73,2.54-5.08,5.08-6.19c2.55-1.11,5.43-0.73,7.97,0.38
				c1.09-2.36,3.05-4.27,5.34-5.5c2.29-1.23,4.9-1.79,7.5-1.85c7.36-0.17,14.59,3.83,18.72,9.93c4.12,6.09,4.98,14.27,3.01,21.37
				C591.886,91.965,592.166,98.675,589.106,103.485z"/>
			<path style="fill:#B1705B;" d="M575.156,98.525v0.01c-3.89,6.22-10.37,10.78-17.56,12.29c-2.63,0.56-5.59,0.66-7.79-0.88
				c-1.46-1.02-2.41-2.65-2.91-4.36c-0.51-1.71-0.61-3.51-0.68-5.3c-0.08-2.04-0.14-4.08-0.16-6.13c-0.01-1.46-0.01-2.93,0.02-4.4
				c0.04-3.94,0.2-7.89,0.47-11.82c3.88-0.09,7.68-1.55,10.53-4.19c3.72,3.28,8.97,4.71,13.8,3.6c-0.2,3.08,0.65,6.21,2.34,8.79
				c-1.83,1.21-3.04,3.27-3.08,5.61c-0.01,0.01-0.01,0.01,0,0.02c-0.01,0.02-0.01,0.04-0.01,0.06c-0.01,0.02-0.01,0.04-0.01,0.06
				c0,0.48,0.05,0.94,0.15,1.39c0.04,0.22,0.09,0.44,0.17,0.66c0.06,0.22,0.14,0.43,0.23,0.64c0.08,0.2,0.17,0.4,0.28,0.59
				l0.01,0.01c0.1,0.2,0.22,0.39,0.35,0.57c0.1,0.16,0.21,0.3,0.33,0.44c0.05,0.07,0.1,0.13,0.15,0.19c0.1,0.12,0.2,0.23,0.3,0.33
				c0.03,0.04,0.06,0.06,0.09,0.09c0.1,0.09,0.19,0.19,0.3,0.27c0.07,0.07,0.15,0.14,0.23,0.2c0.3,0.25,0.61,0.46,0.95,0.64
				c0.11,0.06,0.22,0.12,0.33,0.17c0.06,0.04,0.13,0.08,0.2,0.09c0.12,0.06,0.24,0.11,0.36,0.16c0.04,0.03,0.09,0.04,0.14,0.05
				C574.836,98.425,574.996,98.475,575.156,98.525z"/>
			<path style="fill:#B1705B;" d="M578.921,122.567l-17.087,15.738l-13.963-15.878c0.71-0.93,1.36-1.91,1.94-2.93
				c1.47-2.6,2.5-5.48,2.92-8.42c1.58,0.26,3.29,0.09,4.87-0.25c5.89-1.24,11.31-4.53,15.21-9.1c1.04-1.21,1.97-2.51,2.77-3.89
				C575.001,106.187,576.161,114.677,578.921,122.567z"/>
			<circle style="fill:#B1705B;" cx="577.029" cy="91.887" r="6.904"/>
			<path style="fill:#B1705B;" d="M575.156,98.525v0.01c-0.16-0.05-0.32-0.1-0.47-0.16
				C574.836,98.425,574.996,98.475,575.156,98.525z"/>
			<path style="fill:none;stroke:#444145;stroke-linecap:round;stroke-linejoin:round;stroke-miterlimit:10;" d="M563.824,80.204
				c-0.625-1.009-1.829-1.628-3.013-1.548s-2.295,0.854-2.779,1.937"/>
			<path style="fill:none;stroke:#444145;stroke-linecap:round;stroke-linejoin:round;stroke-miterlimit:10;" d="M552.993,80.796
				c-0.585-0.939-1.671-1.545-2.778-1.55s-2.198,0.592-2.791,1.527"/>
			<path style="fill:none;stroke:#444145;stroke-linecap:round;stroke-linejoin:round;stroke-miterlimit:10;" d="M554.927,82.812
				c0.123,1.962,0.247,3.924,0.37,5.887c-0.526-0.514-1.43-0.576-2.021-0.139s-0.797,1.32-0.461,1.973s1.176,0.998,1.874,0.77"/>
			<path style="fill:#9E5942;" d="M579.094,87.867c-2.785,1.369-4.868,4.037-5.526,7.069c-0.117,0.54,0.619,0.892,0.914,0.385
				c0.848-1.456,2.556-1.946,4.138-2.052c0.639-0.043,0.643-1.043,0-1c-1.192,0.079-2.414,0.355-3.421,0.965
				c0.904-1.939,2.454-3.548,4.4-4.504C580.177,88.447,579.67,87.584,579.094,87.867z"/>
			<path style="fill:#9E5942;" d="M557.601,110.826c-1.58,0.34-3.29,0.51-4.87,0.25c-0.42,2.94-1.45,5.82-2.92,8.42
				c3.99,0.24,8.01-0.47,11.68-2.08c2.05-0.89,4.05-2.05,5.63-3.65c1.48-1.48,2.62-3.28,3.48-5.18c0.99-2.19,1.65-4.51,2.21-6.86
				C568.911,106.297,563.491,109.587,557.601,110.826z"/>
			<path style="fill:#9E5942;" d="M559.053,91.959c0,1.303,1.706,2.359,3.809,2.359c2.104,0,3.809-1.056,3.809-2.359
				c0-1.303-1.706-2.359-3.809-2.359C560.758,89.599,559.053,90.656,559.053,91.959z"/>
			<path style="fill:#9E5942;" d="M551.231,91.956c0,1.3-1.7,2.36-3.81,2.36c-0.48,0-0.94-0.06-1.36-0.16
				c-0.01-1.46-0.01-2.93,0.02-4.4c0.42-0.11,0.87-0.16,1.34-0.16C549.531,89.597,551.231,90.657,551.231,91.956z"/>
			<g>
				<path style="fill:none;stroke:#444145;stroke-linecap:round;stroke-linejoin:round;stroke-miterlimit:10;" d="M560.864,83.049
					c-0.867,0.597-1.496,1.53-1.726,2.558c1.146-1.179,2.89-1.744,4.51-1.459"/>
				<path style="fill:none;stroke:#444145;stroke-linecap:round;stroke-linejoin:round;stroke-miterlimit:10;" d="M550.449,83.464
					c0.743,0.354,1.345,1.256,1.652,2.019c-1.366-0.656-3.267-0.636-4.412-0.127"/>
			</g>
			<g>
				<path style="fill:#444145;" d="M602.486,68.925c-1.88,3.44-5.22,5.98-8.97,7.08c-1.39,0.41-2.84,0.62-4.29,0.61
					c-0.45-3.79-1.7-7.45-3.81-10.56c-2.48-3.66-6.06-6.56-10.12-8.26c0.42-1.43,1.06-2.79,1.88-4.03c1.9-2.85,4.74-5.09,8.02-6.09
					c5.58-1.7,12.1,0.28,15.79,4.81C604.666,57.015,605.286,63.805,602.486,68.925z"/>
				<path style="fill:#8A94DB;" d="M591.666,63.755c-2.14-4.14-5.81-7.54-10.21-9.13c-1.38-0.5-2.83-0.79-4.28-0.86
					c-0.82,1.24-1.46,2.6-1.88,4.03c4.06,1.7,7.64,4.6,10.12,8.26c2.11,3.11,3.36,6.77,3.81,10.56c1.45,0.01,2.9-0.2,4.29-0.61
					C594.236,71.855,593.606,67.525,591.666,63.755z"/>
				<path style="fill:#FFFFFF;" d="M550.72,101.36c3.339-2.212,7.395-3.322,11.395-3.119c-0.18,1.898-0.779,3.811-2.095,5.191
					c-1.316,1.38-3.275,2.194-5.161,1.911C552.974,105.061,551.051,103.238,550.72,101.36z"/>
			</g>
		</g>
		<g>
			<path style="fill:#A4ACE3;" d="M612.866,185.505c-2.82,5.85-9.39,9.86-14.08,13.22c0.31,1.66,0.59,3.32,0.84,4.98
				c0,0.01,0,0.01,0,0.01c1.03,6.55,1.67,13.16,1.99,19.79c-1.23,0.54-2.47,1.05-3.72,1.53c-0.03,0.01-0.07,0.03-0.1,0.04
				c-0.51,0.2-1.03,0.39-1.55,0.57c-0.15,0.06-0.31,0.12-0.46,0.17c-0.6,0.22-1.21,0.43-1.82,0.63c-0.61,0.21-1.22,0.4-1.83,0.59
				c-0.17,0.05-0.33,0.1-0.49,0.15c-0.49,0.15-0.99,0.29-1.48,0.43c-0.21,0.07-0.42,0.13-0.63,0.18c-0.53,0.15-1.05,0.29-1.58,0.42
				c-0.67,0.18-1.35,0.34-2.02,0.5c-0.71,0.16-1.41,0.32-2.12,0.46c-1.69,0.36-3.39,0.66-5.1,0.9c-0.49,0.08-0.97,0.15-1.46,0.21
				c-0.34,0.05-0.67,0.09-1.01,0.13c-0.3,0.04-0.61,0.07-0.91,0.1c-0.49,0.06-0.98,0.11-1.47,0.15c-0.56,0.06-1.11,0.11-1.67,0.14
				c-0.75,0.07-1.5,0.11-2.26,0.15c-0.77,0.04-1.55,0.07-2.33,0.09c-0.78,0.02-1.55,0.03-2.33,0.03c-0.75,0-1.5-0.01-2.25-0.03
				s-1.5-0.04-2.25-0.08c-0.71-0.04-1.41-0.08-2.12-0.13c-0.61-0.04-1.22-0.09-1.83-0.15c-0.47-0.04-0.94-0.09-1.42-0.15
				c-0.29-0.02-0.57-0.05-0.86-0.09c-0.46-0.05-0.92-0.11-1.38-0.18c-0.17-0.01-0.33-0.04-0.5-0.07c-0.63-0.08-1.26-0.17-1.89-0.28
				c-0.62-0.1-1.24-0.2-1.87-0.32c-0.6-0.11-1.21-0.22-1.81-0.35c-0.39-0.07-0.77-0.16-1.16-0.25c-0.4-0.08-0.81-0.17-1.21-0.26
				c-0.1-0.02-0.19-0.04-0.28-0.07c-0.6-0.14-1.2-0.29-1.79-0.44c-0.03,0-0.06-0.01-0.08-0.02c-1.85-0.48-3.69-1.01-5.51-1.61
				c-1.46-0.48-2.91-1-4.35-1.56c-0.86-0.33-1.72-0.68-2.57-1.04c-0.03-1.37-0.05-2.74-0.05-4.13c-0.05-7.33,0.3-14.8,1.45-21.98
				c-8.54,4.98-18.76,6.87-28.59,5.84c0.79-3.99,0.42-8.35-0.52-12.31c5.32-4.51,10.7-9.47,16.26-13.68
				c1.59-8.03,2.51-16.69,4.1-24.73c1.34-6.75,2.74-13.66,6.37-19.51c3.63-5.84,11.84-11.5,18.7-11.07l13.97,15.88l17.08-15.74
				c7.82,0,16.32,2.36,21.53,8.19s7.96,13.44,9.9,21.01c1.94,7.57,3.2,15.31,3.76,23.1
				C614.356,178.465,614.426,182.245,612.866,185.505z"/>
			<g>
				<path style="fill:#848FCF;" d="M539.581,175.695c-0.835-0.549-1.633-1.167-2.385-1.84c0.004-0.015,0.008-0.031,0.011-0.046
					c0.117-0.451-0.353-0.709-0.684-0.585c-2.526-2.48-4.394-5.64-4.959-9.158c-0.462-2.88,0.161-5.765,0.865-8.552
					c0.708-2.804,1.563-5.571,2.559-8.286c1.141-3.11,2.473-6.145,3.976-9.098c0.291-0.572-0.571-1.079-0.863-0.505
					c-2.785,5.469-4.984,11.232-6.522,17.174c-0.743,2.87-1.436,5.854-1.077,8.835c0.299,2.482,1.214,4.857,2.572,6.951
					c0.854,1.317,1.878,2.507,3.012,3.584c-2.377,9.304-4.116,18.763-5.207,28.304c-0.073,0.638,0.928,0.633,1,0
					c1.062-9.285,2.758-18.491,5.05-27.551c0.685,0.584,1.394,1.14,2.147,1.635C539.616,176.913,540.118,176.048,539.581,175.695z"
					/>
				<path style="fill:#848FCF;" d="M525.808,179.555c-2.034-1.64-4.536-2.582-7.151-2.661c-0.644-0.02-0.643,0.98,0,1
					c2.332,0.071,4.625,0.902,6.444,2.368c0.212,0.171,0.499,0.203,0.707,0C525.986,180.088,526.018,179.724,525.808,179.555z"/>
				<path style="fill:#848FCF;" d="M597.741,198.376c-4.325,4.053-8.842,7.959-13.915,11.056c-2.491,1.521-5.108,2.844-7.851,3.846
					c-0.631,0.231-1.442,0.662-2.124,0.641c-0.73-0.023-1.495-0.956-1.981-1.427c-1.067-1.033-2.018-2.18-2.908-3.367
					c-2.094-2.79-3.947-5.759-5.575-8.844c6.35-6.708,13.014-13.213,20.645-18.463c2.07-1.425,4.212-2.743,6.415-3.952
					c2.388,0.656,4.622,1.806,6.505,3.421c0.486,0.417,1.197-0.287,0.707-0.707c-1.993-1.709-4.337-2.954-6.863-3.66
					c-0.058-0.055-0.125-0.097-0.202-0.12c-3.416-12.567-6.92-26.32-1.641-38.892c1.286-3.062,3.093-5.893,5.415-8.273
					c0.45-0.461-0.257-1.169-0.707-0.707c-4.269,4.376-6.764,10.157-7.804,16.13c-1.172,6.732-0.508,13.589,0.852,20.242
					c0.817,3.995,1.879,7.933,2.949,11.866c-8.053,4.476-15.131,10.481-21.655,16.944c-1.896,1.878-3.75,3.798-5.582,5.738
					c-0.159,0.169-0.184,0.404-0.078,0.606c1.569,3.014,3.358,5.91,5.367,8.651c0.927,1.266,1.898,2.506,2.993,3.633
					c0.883,0.909,2.086,2.362,3.498,2.148c0.758-0.115,1.524-0.451,2.241-0.717c0.702-0.261,1.396-0.543,2.083-0.84
					c1.423-0.615,2.811-1.311,4.163-2.07c2.698-1.513,5.243-3.279,7.684-5.176c2.815-2.188,5.478-4.563,8.078-7
					C598.919,198.642,598.211,197.936,597.741,198.376z"/>
				<path style="fill:#848FCF;" d="M582.275,125.007c-5.677,6.712-12.021,12.84-18.918,18.289
					c-7.125-5.316-13.503-11.628-18.884-18.705c-0.384-0.506-1.253-0.008-0.863,0.505c5.558,7.311,12.123,13.797,19.503,19.263
					c0.192,0.142,0.443,0.05,0.606-0.078c7.033-5.517,13.491-11.743,19.264-18.567C583.396,125.226,582.692,124.515,582.275,125.007
					z"/>
			</g>
		</g>
		<path style="fill:#B1705B;" d="M570.696,212.735c-1.09-1.12-2.06-2.36-2.99-3.63c-1.66-2.26-3.17-4.63-4.52-7.08
			c-1.88,0.26-3.74,0.79-5.41,1.63c-0.98,0.49-1.88,1.31-2.02,2.46c-0.11,0.94,0.41,1.7,1.03,2.33c-1.52,1.1-3.21,2.59-3.27,4.53
			c-0.08,2.03,1.46,3.98,2.93,5.21c1.54,1.29,3.55,2.36,5.56,2.67c2.24,0.35,4.28-0.75,5.83-2.3c1.44-1.44,2.66-3.14,3.75-4.9
			C571.266,213.335,570.966,213.015,570.696,212.735z"/>
		<g>
			<g>
				<g>
					<g>
						<path style="fill:none;stroke:#626063;stroke-linecap:round;stroke-linejoin:round;stroke-miterlimit:10;" d="M541.466,155.79
							c-6.645,3.042-8.177,16.541,1.223,37.072l3.323-1.521"/>
						
							<line style="fill:none;stroke:#626063;stroke-linecap:round;stroke-linejoin:round;stroke-miterlimit:10;" x1="543.842" y1="188.805" x2="546.514" y2="194.642"/>
					</g>
					<g>
						<path style="fill:none;stroke:#626063;stroke-linecap:round;stroke-linejoin:round;stroke-miterlimit:10;" d="
							M541.613,155.723c6.645-3.042,17.865,4.618,27.265,25.149l-3.323,1.521"/>
						
							<line style="fill:none;stroke:#626063;stroke-linecap:round;stroke-linejoin:round;stroke-miterlimit:10;" x1="565.053" y1="179.093" x2="567.725" y2="184.93"/>
					</g>
				</g>
				<path style="fill:#626063;" d="M543.784,123.422c0.24-0.597-0.727-0.856-0.964-0.266c-3.178,7.89-3.74,16.588-2.478,24.948
					c0.367,2.428,0.893,4.828,1.553,7.193c0.173,0.619,1.138,0.356,0.964-0.266c-2.245-8.041-2.918-16.634-1.152-24.838
					C542.205,127.88,542.9,125.616,543.784,123.422z"/>
			</g>
			<g>
				<path style="fill:none;stroke:#626063;stroke-miterlimit:10;" d="M577.91,169.203c0,2.816-2.283,5.1-5.1,5.1
					c-2.816,0-5.1-2.283-5.1-5.1c0-2.816,2.283-5.1,5.1-5.1C575.627,164.104,577.91,166.387,577.91,169.203z"/>
				<path style="fill:#626063;" d="M585.33,123.279c-0.136-0.629-1.1-0.363-0.964,0.266c1.207,5.569,0.353,11.494-0.552,17.049
					c-0.877,5.383-2.182,10.708-4.08,15.827c-1.081,2.917-2.364,5.755-3.852,8.488c-0.308,0.565,0.555,1.071,0.864,0.505
					c5.381-9.884,8.075-21.152,9.011-32.314C586.033,129.818,586.03,126.509,585.33,123.279z"/>
			</g>
		</g>
		<g>
			<path style="fill:#8A94DB;" d="M595.226,326.335c2.28,35.03,3.35,62.92,0.81,95.49c-8.04,2.28-16.84,2.2-24.97,0.25
				c-1.95-19.27-3.1-37.97-3.9-56.82c-0.52-12.12-0.9-24.31-1.26-36.75c-0.45-15.17-1.38-30.73-2.69-45.85
				c-0.01-0.07-0.01-0.15-0.02-0.22c-0.01,0.06-0.03,0.11-0.04,0.17c-4.63,18.62-6.23,32.68-14.25,48.66
				c2.23,14.23,3.58,28.45,4.34,42.71c0.84,15.63,0.97,31.31,0.76,47.08c-7.42,4.3-17.05,4.81-24.92,1.37
				c-1.03-13.7-2.07-26.92-3.12-40.06c-1.52-19.13-3.05-38.07-4.55-58.03c0.8-15.4,2.01-30.69,3.72-46.22
				c1.89-17.25,4.38-34.8,7.58-53.08c1.44,0.56,2.89,1.08,4.35,1.56c1.82,0.6,3.66,1.13,5.51,1.61c0.02,0.01,0.05,0.02,0.08,0.02
				c0.59,0.15,1.19,0.3,1.79,0.44c0.09,0.03,0.18,0.05,0.28,0.07c0.4,0.09,0.81,0.18,1.21,0.26c0.39,0.09,0.77,0.18,1.16,0.25
				c0.6,0.13,1.21,0.24,1.81,0.35c0.63,0.12,1.25,0.22,1.87,0.32c0.63,0.11,1.26,0.2,1.89,0.28c0.17,0.03,0.33,0.06,0.5,0.07
				c0.46,0.07,0.92,0.13,1.38,0.18c0.29,0.04,0.57,0.07,0.86,0.09c0.48,0.06,0.95,0.11,1.42,0.15c0.61,0.06,1.22,0.11,1.83,0.15
				c0.71,0.05,1.41,0.09,2.12,0.13c0.75,0.04,1.5,0.06,2.25,0.08s1.5,0.03,2.25,0.03c0.78,0,1.55-0.01,2.33-0.03
				c0.78-0.02,1.56-0.05,2.33-0.09c0.76-0.04,1.51-0.08,2.26-0.15c0.56-0.03,1.11-0.08,1.67-0.14c0.49-0.04,0.98-0.09,1.47-0.15
				c0.3-0.03,0.61-0.06,0.91-0.1c0.34-0.04,0.67-0.08,1.01-0.13c0.49-0.06,0.97-0.13,1.46-0.21c1.71-0.24,3.41-0.54,5.1-0.9
				c0.71-0.14,1.41-0.3,2.12-0.46c0.67-0.16,1.35-0.32,2.02-0.5c0.53-0.13,1.05-0.27,1.58-0.42c0.21-0.05,0.42-0.11,0.63-0.18
				c0.49-0.14,0.99-0.28,1.48-0.43c0.16-0.05,0.32-0.1,0.49-0.15c0.61-0.19,1.22-0.38,1.83-0.59c0.61-0.2,1.22-0.41,1.82-0.63
				c0.15-0.05,0.31-0.11,0.46-0.17c0.52-0.18,1.04-0.37,1.55-0.57c0.03-0.01,0.07-0.03,0.1-0.04c7,10.95,7.63,25.67,1.18,36.95
				C599.916,283.365,598.616,305.205,595.226,326.335z"/>
			<g>
				<path style="fill:#6F7AC7;" d="M566.77,255.89c-1.137,0.085-2.4,0.16-3.656,0.105l-0.261-11.656
					c-0.084-3.731-0.167-7.462-0.251-11.193c-0.014-0.643-1.015-0.645-1,0c0.17,7.591,0.34,15.182,0.51,22.772
					c-2.456-0.263-4.743-1.157-5.823-3.626c-0.774-1.77-0.735-3.788-0.737-5.681c-0.003-2.213,0.024-4.425,0.08-6.638
					c0.064-2.54,0.169-5.078,0.31-7.615c0.036-0.643-0.964-0.641-1,0c-0.268,4.828-0.401,9.663-0.389,14.499
					c0.005,1.977,0.032,4.042,0.846,5.882c0.764,1.726,2.221,2.917,3.956,3.594c0.899,0.351,1.834,0.541,2.782,0.633
					c0.116,5.161,0.231,10.322,0.347,15.482c0.084,3.731,0.167,7.462,0.251,11.194c0.014,0.643,1.014,0.645,1,0
					c-0.199-8.871-0.398-17.743-0.596-26.614c1.213,0.038,2.437-0.047,3.633-0.137C567.408,256.842,567.413,255.842,566.77,255.89z"
					/>
				<path style="fill:#6F7AC7;" d="M596.477,245.291c-3.255,0.073-6.461-1.378-8.513-3.92c-2.215-2.743-2.813-6.41-3.069-9.824
					c-0.048-0.638-1.048-0.643-1,0c0.278,3.704,0.956,7.569,3.362,10.531c2.215,2.728,5.72,4.291,9.22,4.213
					C597.119,246.277,597.122,245.277,596.477,245.291z"/>
				<path style="fill:#6F7AC7;" d="M592.49,249.325c-0.092-0.635-1.055-0.365-0.964,0.266c0.715,4.942,0.882,9.942,0.883,14.93
					c0,4.953-0.111,9.908-0.263,14.858c-0.308,9.973-0.869,19.938-1.683,29.883c-0.459,5.612-1,11.217-1.619,16.813
					c-0.071,0.639,0.93,0.634,1,0c1.106-10,1.959-20.027,2.554-30.07c0.591-9.99,0.95-20.001,1.008-30.009
					C593.436,260.424,593.289,254.846,592.49,249.325z"/>
				<path style="fill:#6F7AC7;" d="M592.038,350.088c-0.461-6.358-1.203-12.698-2.362-18.968c-0.117-0.632-1.081-0.364-0.964,0.266
					c2.077,11.227,2.767,22.65,2.99,34.049c0.225,11.538,0.113,23.086,0.047,34.625c-0.037,6.58-0.093,13.161-0.166,19.74
					c-0.007,0.644,0.993,0.644,1,0c0.131-11.744,0.205-23.489,0.221-35.233C592.819,373.073,592.869,361.56,592.038,350.088z"/>
				<path style="fill:#6F7AC7;" d="M549.422,385.982c-0.792-11.478-1.771-22.944-2.936-34.39
					c-0.658-6.464-1.376-12.923-2.152-19.374c-0.076-0.631-1.077-0.639-1,0c1.379,11.464,2.573,22.951,3.578,34.454
					c1.001,11.462,1.816,22.94,2.444,34.428c0.354,6.488,0.649,12.979,0.885,19.473c0.023,0.642,1.023,0.645,1,0
					C550.822,409.034,550.216,397.502,549.422,385.982z"/>
				<path style="fill:#6F7AC7;" d="M559.495,280.204c-2.621,12.818-6.224,25.432-10.78,37.697
					c-1.302,3.505-2.682,6.982-4.139,10.426c-0.248,0.586,0.613,1.096,0.864,0.505c5.144-12.164,9.357-24.714,12.561-37.527
					c0.899-3.594,1.717-7.207,2.459-10.836C560.588,279.841,559.624,279.573,559.495,280.204z"/>
				<path style="fill:#6F7AC7;" d="M578.947,328.203c-3.829,0.453-7.681,0.205-11.514-0.055c-0.642-0.044-0.64,0.956,0,1
					c3.833,0.261,7.685,0.508,11.514,0.055C579.578,329.128,579.586,328.127,578.947,328.203z"/>
				<path style="fill:#6F7AC7;" d="M537.718,330.107c-4.659,0.598-9.384,0.464-13.998-0.424c-0.629-0.121-0.898,0.843-0.266,0.964
					c4.703,0.904,9.513,1.068,14.264,0.459C538.348,331.026,538.356,330.025,537.718,330.107z"/>
			</g>
		</g>
		<path style="opacity:0.15;fill:#522840;" d="M599.076,261.985c6.45-11.28,5.82-26-1.18-36.95c1.25-0.48,2.49-0.99,3.72-1.53
			c-0.32-6.63-0.96-13.24-1.99-19.79c-1.69,2.39-3.8,4.49-6.1,6.31c-4,3.17-8.59,5.63-13.26,7.65c-9.97,4.32-21.01,6.36-31.86,5.3
			c-3.36-0.33-6.68-0.95-9.99-1.57c-2.78-0.51-5.55-1.02-8.32-1.54c0,1.39,0.02,2.76,0.05,4.13c0.85,0.36,1.71,0.71,2.57,1.04
			c-3.2,18.28-5.69,35.83-7.58,53.08c10.01-2.46,20.47-3.07,30.31,0.52c2.76,1.01,5.34,2.34,7.71,3.97
			c0.02,0.02,0.04,0.03,0.06,0.05c2.71,1.86,5.15,4.1,7.3,6.65c4.08,4.86,7.08,10.61,9.28,16.54c2.38,6.43,3.8,13.22,4.18,20.07
			c0.38,6.92-0.24,13.99-2.74,20.5c-2.86,7.45-7.95,13.77-14.07,18.84c0.8,18.85,1.95,37.55,3.9,56.82
			c8.13,1.95,16.93,2.03,24.97-0.25c2.54-32.57,1.47-60.46-0.81-95.49C598.616,305.205,599.916,283.365,599.076,261.985z
			 M525.966,382.365c1.05,13.14,2.09,26.36,3.12,40.06c7.87,3.44,17.5,2.93,24.92-1.37c0.21-15.77,0.08-31.45-0.76-47.08
			C544.636,378.035,535.306,380.455,525.966,382.365z"/>
		<g>
			<path style="fill:#B1705B;" d="M502.956,203.725c-3.7,2.42-8.35,3.29-12.66,2.36c0.24-0.15,0.45-0.32,0.63-0.49
				c0.96-0.91,1.77-2.07,2.42-3.22c0.33-0.58,0.62-1.19,0.83-1.82c0.2-0.58,0.22-1.28-0.28-1.72c-0.36-0.32-0.84-0.33-1.31-0.22
				c0.22-0.32,0.41-0.65,0.56-1c0.29-0.66,0.4-1.45-0.1-2.03c-0.45-0.53-1.24-0.57-1.86-0.4c0.06-0.1,0.14-0.19,0.2-0.29
				c0.43-0.75,0.82-1.71,0.76-2.58c-0.08-1.14-1.24-1.43-2.19-1.28c-0.1,0.02-0.2,0.06-0.3,0.08c0.02-0.02,0.04-0.05,0.06-0.07
				c0.26-0.37,0.53-0.76,0.7-1.18c1.7-0.61,3.52-0.89,5.33-0.79c2.41,0.13,4.69,1,6.69,2.34
				C503.376,195.375,503.746,199.735,502.956,203.725z"/>
			<path style="fill:#444145;" d="M499.742,193.72c0-4.656-2.495-8.431-5.574-8.431c-3.078,0-5.574,3.774-5.574,8.431
				c0,2.713,0.851,5.12,2.167,6.662l-0.012-0.006l1.945,7.026h1.474h1.474l1.945-7.026l-0.012,0.006
				C498.891,198.84,499.742,196.433,499.742,193.72z"/>
			<g>
				<path style="fill:#B1705B;" d="M493.896,198.832c-0.358-0.32-0.843-0.322-1.307-0.217c0.214-0.319,0.407-0.65,0.56-1.002
					c0.285-0.657,0.393-1.443-0.105-2.029c-0.45-0.53-1.234-0.573-1.863-0.395c0.065-0.101,0.146-0.191,0.206-0.295
					c0.427-0.744,0.823-1.705,0.759-2.581c-0.083-1.132-1.239-1.425-2.191-1.278c-0.104,0.016-0.198,0.057-0.299,0.083
					c0.02-0.027,0.044-0.05,0.063-0.076c0.419-0.572,0.841-1.229,0.89-1.956c0.117-1.731-1.776-2.108-3.094-1.685
					c-1.396,0.447-2.622,1.51-3.579,2.591c-0.939,1.06-2.061,2.515-2.084,3.995c-0.011,0.704,0.299,1.435,0.89,1.84
					c0.346,0.237,0.722,0.307,1.102,0.286c-0.5,0.847-0.807,1.793-0.703,2.801c0.078,0.757,0.36,1.565,0.964,2.066
					c0.27,0.224,0.602,0.359,0.937,0.392c-0.324,0.799-0.447,1.663-0.016,2.42c0.434,0.763,1.262,1.117,2.057,1.031
					c-0.063,0.524,0.033,1.028,0.436,1.395c1.017,0.925,2.579,0.175,3.408-0.618c0.955-0.912,1.773-2.073,2.418-3.22
					c0.326-0.579,0.617-1.19,0.832-1.82C494.378,199.972,494.394,199.277,493.896,198.832z"/>
				<path style="fill:#9E5942;" d="M494.365,199.02c-0.213-0.389-0.551-0.663-0.938-0.804c0.423-0.855,0.671-1.814,0.195-2.71
					c-0.274-0.515-0.789-0.856-1.337-0.934c0.382-0.984,0.53-2.052-0.014-3.028c-0.349-0.627-1.001-1.046-1.683-1.118
					c0.09-0.14,0.18-0.28,0.252-0.43c0.21-0.435,0.32-0.906,0.201-1.385c-0.063-0.254-0.363-0.431-0.615-0.349
					c-0.263,0.085-0.417,0.343-0.349,0.615c0.006,0.022,0.011,0.045,0.016,0.068c0,0.001,0,0,0,0.001
					c0.004,0.035,0.001,0.096,0.001,0.107c-0.001,0.022-0.004,0.053-0.005,0.08c-0.004,0.021-0.008,0.042-0.013,0.063
					c-0.019,0.081-0.046,0.158-0.072,0.236c-0.003,0.008-0.002,0.005-0.004,0.01c-0.005,0.011-0.01,0.022-0.015,0.033
					c-0.018,0.037-0.036,0.074-0.056,0.111c-0.173,0.325-0.4,0.617-0.572,0.942c-0.036,0.069-0.052,0.145-0.056,0.223
					c-0.012,0.006-0.025,0.012-0.037,0.021c-0.02,0.015-0.029,0.035-0.046,0.051c-1.912,1.458-3.773,2.981-5.572,4.578
					c-0.482,0.428,0.227,1.133,0.707,0.707c1.77-1.571,3.597-3.078,5.481-4.51c0.718-0.472,1.503,0.052,1.723,0.822
					c0.246,0.864-0.125,1.737-0.525,2.495c-0.008,0.006-0.017,0.008-0.024,0.014c-2.336,1.826-4.607,3.747-6.394,6.132
					c-0.162,0.216-0.035,0.559,0.179,0.684c0.255,0.149,0.522,0.037,0.684-0.179c1.706-2.277,3.919-4.112,6.146-5.856
					c0.016-0.009,0.031-0.01,0.047-0.021c0.615-0.428,1.168,0.192,1.21,0.808c0.044,0.643-0.289,1.231-0.614,1.766
					c-0.025,0.016-0.051,0.023-0.075,0.045c-2.003,1.827-3.775,3.897-5.284,6.15c-0.359,0.536,0.507,1.037,0.863,0.505
					c1.433-2.14,3.12-4.094,5.014-5.839c0.818-0.193,0.857,0.956,0.724,1.47c-0.171,0.662-0.493,1.299-0.822,1.895
					c-0.642,1.163-1.47,2.191-2.446,3.089c-0.474,0.437,0.234,1.143,0.707,0.707c1.431-1.318,2.558-2.928,3.283-4.734
					C494.546,200.765,494.801,199.814,494.365,199.02z"/>
			</g>
			<path style="fill:#626063;" d="M494.452,207.216c-0.147-0.626-1.111-0.361-0.964,0.266c1.306,5.568-0.468,11.715-4.65,15.644
				c-3.172,2.98-7.607,4.613-11.958,4.436c1.152-1.672,1.767-3.678,1.015-5.667c-1.075-2.843-4.289-4.249-7.093-3.063
				c-1.329,0.562-2.456,1.667-2.877,3.068c-0.442,1.472,0.129,2.935,1.197,3.977c1.489,1.453,3.618,2.198,5.766,2.511
				c-0.268,0.268-0.543,0.519-0.82,0.748c-2.344,1.931-5.306,3.138-8.242,3.813c-7.305,1.68-14.809-0.083-21.72-2.542
				c-0.607-0.216-0.869,0.75-0.266,0.964c6.962,2.477,14.47,4.195,21.838,2.633c3.259-0.691,6.51-2.029,9.097-4.161
				c0.474-0.39,0.934-0.836,1.358-1.32c0.698,0.05,1.389,0.066,2.043,0.04c3.114-0.122,6.2-1.084,8.829-2.758
				C493.131,221.903,496.105,214.26,494.452,207.216z M472.823,226.84c-1.353-0.445-2.812-1.153-3.599-2.401
				c-0.832-1.32-0.393-2.853,0.699-3.878c2.115-1.985,5.536-1.301,6.842,1.235c1.017,1.976,0.232,4.035-1.06,5.67
				C474.729,227.352,473.762,227.15,472.823,226.84z"/>
		</g>
	</g>
	<g>
		<g>
			<path style="fill:#A4ACE3;" d="M442.326,325.065c0,2.18-0.88,4.15-2.32,5.58c-1.42,1.43-3.4,2.31-5.58,2.31h-37.44
				c7.66-4.94,15.12-10.23,22.12-15.79h15.32C438.786,317.165,442.326,320.695,442.326,325.065z"/>
			<path style="fill:#8A94DB;" d="M413.616,340.466h-9.118c-4.148,0-7.511-3.363-7.511-7.511l0,0h24.141l0,0
				C421.127,337.103,417.764,340.466,413.616,340.466z"/>
			<rect x="406.56" y="340.466" style="fill:#8A94DB;" width="4.994" height="80.971"/>
			<path style="fill:#8A94DB;" d="M421.273,426.377H396.84c-1.364,0-2.47-1.106-2.47-2.47l0,0c0-1.364,1.106-2.47,2.47-2.47h24.432
				c1.364,0,2.47,1.106,2.47,2.47l0,0C423.742,425.271,422.637,426.377,421.273,426.377z"/>
			
				<line style="fill:none;stroke:#8A94DB;stroke-width:4;stroke-linecap:round;stroke-linejoin:round;stroke-miterlimit:10;" x1="409.056" y1="438.948" x2="409.056" y2="423.907"/>
			
				<line style="fill:none;stroke:#8A94DB;stroke-width:4;stroke-linecap:round;stroke-linejoin:round;stroke-miterlimit:10;" x1="390.475" y1="438.948" x2="396.371" y2="423.907"/>
			
				<line style="fill:none;stroke:#8A94DB;stroke-width:4;stroke-linecap:round;stroke-linejoin:round;stroke-miterlimit:10;" x1="427.638" y1="438.948" x2="421.742" y2="423.907"/>
			<g>
				<path style="fill:#A4ACE3;" d="M415.604,438.948c0-3.616-2.931-6.547-6.547-6.547c-3.616,0-6.547,2.931-6.547,6.547
					c0,3.616,2.931,6.547,6.547,6.547C412.672,445.495,415.604,442.564,415.604,438.948z"/>
				<path style="fill:#A4ACE3;" d="M397.022,438.948c0-3.616-2.931-6.547-6.547-6.547c-3.616,0-6.547,2.931-6.547,6.547
					c0,3.616,2.931,6.547,6.547,6.547C394.091,445.495,397.022,442.564,397.022,438.948z"/>
				<path style="fill:#A4ACE3;" d="M434.185,438.948c0-3.616-2.931-6.547-6.547-6.547c-3.616,0-6.547,2.931-6.547,6.547
					c0,3.616,2.931,6.547,6.547,6.547C431.254,445.495,434.185,442.564,434.185,438.948z"/>
			</g>
		</g>
		<g>
			<g>
				<path style="fill:#B1705B;" d="M505.426,260.825c0.07,1.06-0.42,2.07-0.94,3c-0.92,1.65-1.97,3.24-3.12,4.74
					c-0.76,1-1.64,2-2.83,2.4c-1.41,0.47-2.96,0-4.31-0.62c-2.27-1.03-4.34-2.48-6.09-4.26c-10.59-2.22-21.52-4.16-32.11-6.39
					c-6.34-1.33-12.8-2.71-18.4-5.95c-4.95-2.86-9.02-7.07-12.3-11.75c-2.88-4.13-5.19-8.63-7.3-13.22
					c7.14-2.25,13.75-5.99,19.38-10.93c3.08,6.45,5.55,13.2,7.35,20.13c16.42,2.28,32.65,7.98,46.83,16.56
					c2.11-0.83,3.83-1.4,6.09-1.57c1.77-0.14,3.81,0.04,4.92,1.42c0.89,1.12,0.91,2.68,0.89,4.11
					C504.546,258.455,505.366,259.765,505.426,260.825z"/>
				<path style="fill:#9E5942;" d="M444.587,237.701c-2.536,1.535-4.431,4.013-5.247,6.863c-0.177,0.62,0.787,0.884,0.964,0.266
					c0.745-2.603,2.471-4.864,4.787-6.266C445.641,238.232,445.139,237.367,444.587,237.701z"/>
				<path style="fill:#9E5942;" d="M503.751,258.164c-1.478-0.728-3.58-1.323-5.194-0.69c-0.633,0.249-1.118,0.749-1.197,1.441
					c-0.017,0.149-0.015,0.299,0.007,0.443c-0.864,0.019-1.72,0.306-2.151,1.112c-0.253,0.474-0.294,1.021-0.142,1.497
					c-0.735,0.103-1.415,0.496-1.666,1.246c-0.179,0.535-0.09,1.086,0.183,1.516c-0.652,0.358-1.095,1.069-1.097,1.893
					c-0.004,1.499,1.186,2.536,2.394,3.205c0.563,0.312,1.068-0.551,0.505-0.863c-0.742-0.411-1.515-0.926-1.801-1.77
					c-0.243-0.718,0.09-1.884,1.056-1.717c0.001-0.005,0.001-0.01,0.002-0.015c0.044,0.009,0.085,0.027,0.131,0.033
					c0.057,0.008,0.107-0.002,0.155-0.014c1.099,0.327,2.135,0.853,3.026,1.583c0.209,0.171,0.503,0.204,0.707,0
					c0.176-0.177,0.21-0.535,0-0.707c-1.212-0.995-2.64-1.693-4.174-2.02c-0.213-0.249-0.218-0.724-0.056-0.966
					c0.271-0.405,0.79-0.481,1.255-0.419c1.417,0.896,2.833,1.792,4.25,2.687c0.546,0.345,1.048-0.52,0.505-0.863
					c-1.263-0.799-2.527-1.598-3.79-2.397c-0.047-0.131-0.142-0.247-0.306-0.307c-0.516-0.188-0.424-0.985-0.121-1.313
					c0.457-0.493,1.251-0.468,1.867-0.347c1.244,0.924,2.558,1.744,3.952,2.427c0.242,0.119,0.541,0.066,0.684-0.179
					c0.129-0.22,0.064-0.565-0.179-0.684c-1.331-0.652-2.596-1.437-3.787-2.318c-0.041-0.054-0.094-0.104-0.171-0.141
					c-0.322-0.154-0.312-0.558-0.111-0.823c0.302-0.398,0.96-0.435,1.411-0.442c1.163-0.019,2.311,0.265,3.352,0.777
					C503.822,259.311,504.329,258.449,503.751,258.164z"/>
			</g>
			<g>
				<g>
					<polygon style="fill:#B1705B;" points="324.423,429.29 325.578,417.454 309.523,417.454 311.238,430.438 313.431,437.824 
						319.972,439.148 323.476,436.111 					"/>
					<path style="fill:#444145;" d="M326.056,445.495h-35.973c-1.319,0-2.387-1.069-2.387-2.387v-1.801
						c0-0.93,0.54-1.775,1.383-2.166l19.575-9.079c0.86-0.399,1.874-0.251,2.585,0.376l4.532,4.003
						c0.923,0.815,2.315,0.794,3.214-0.048l5.438-5.102c0.443-0.415,1.027-0.646,1.633-0.646l0,0c1.319,0,2.388,1.069,2.388,2.387
						v12.077C328.444,444.426,327.375,445.495,326.056,445.495z"/>
				</g>
				<g>
					<polygon style="fill:#B1705B;" points="386.423,429.29 385.614,417.454 370.07,417.861 373.238,430.438 375.431,437.824 
						381.972,439.148 385.476,436.111 					"/>
					<path style="fill:#444145;" d="M388.056,445.495h-35.973c-1.319,0-2.387-1.069-2.387-2.387v-1.801
						c0-0.93,0.54-1.775,1.383-2.166l19.575-9.079c0.86-0.399,1.874-0.251,2.585,0.376l4.532,4.003
						c0.923,0.815,2.315,0.794,3.214-0.048l5.438-5.102c0.443-0.415,1.027-0.646,1.633-0.646l0,0c1.319,0,2.388,1.069,2.388,2.387
						v12.077C390.444,444.426,389.375,445.495,388.056,445.495z"/>
				</g>
			</g>
			<g>
				<path style="fill:#444145;" d="M431.236,317.165h-12.13c-12.43,9.87-26.33,18.9-40.17,26.66c7.6,27.47,10.39,49.31,10.41,77.81
					c-7.72,3.31-16.19,3.94-24.47,2.5c-3.3-9.66-6.18-18.66-8.73-27.49c-5-17.24-8.75-33.86-11.98-53.52
					c-1.37,22.01-4.29,40.57-9.05,60.44c-1.55,6.42-3.28,12.97-5.22,19.82c-8.34,0.73-16.81-0.4-24.69-3.24
					c-0.69-6.92-1.06-13.62-1.14-20.19c-0.29-23.25,2.9-44.84,7.44-68.4c0.49-2.58,1-5.18,1.53-7.81
					c8.1-15.76,26.34-32.33,42.93-44.82c16.98,4.36,34.57,5.76,51.98,4.41c0.65-0.05,1.3-0.11,1.96-0.17
					c1.04-0.09,2.09-0.19,3.13-0.31c0.85-0.09,1.69-0.19,2.54-0.3c0.66-0.08,1.32-0.16,1.98-0.26c1.03-0.13,2.06-0.28,3.09-0.45
					c0.68-0.1,1.36-0.21,2.04-0.33c0.27-0.04,0.54-0.08,0.81-0.14c0.54-0.09,1.07-0.18,1.61-0.29c0.32-0.05,0.64-0.1,0.95-0.17
					c0.6-0.11,1.2-0.23,1.8-0.35c0.18-0.03,0.36-0.06,0.53-0.11c0.78-0.16,1.56-0.32,2.33-0.49c0.84-0.18,1.67-0.37,2.51-0.57
					c0.83-0.19,1.66-0.39,2.49-0.6h0.01C438.396,291.665,437.076,305.395,431.236,317.165z"/>
				<g>
					<path style="fill:none;stroke:#626063;stroke-linecap:round;stroke-linejoin:round;stroke-miterlimit:10;" d="M344.277,343.15
						c-1.015-5.403-1.996-11.178,0.146-16.242c1.395-3.297,3.976-5.925,6.53-8.433c11.376-11.174,23.376-21.691,35.368-32.201"/>
					<path style="fill:none;stroke:#626063;stroke-linecap:round;stroke-linejoin:round;stroke-miterlimit:10;" d="M314.868,324.878
						c4.29,0.332,8.513,1.5,12.364,3.421"/>
					<path style="fill:none;stroke:#626063;stroke-linecap:round;stroke-linejoin:round;stroke-miterlimit:10;" d="M346.671,332.717
						c5.792-1.533,12.097-1.047,17.585,1.357"/>
					<path style="fill:none;stroke:#626063;stroke-linecap:round;stroke-linejoin:round;stroke-miterlimit:10;" d="M422.544,283.094
						c-2.592,2.517-4.374,5.856-5.023,9.41c-0.649,3.554-0.163,7.307,1.371,10.578"/>
					<path style="fill:none;stroke:#626063;stroke-linecap:round;stroke-linejoin:round;stroke-miterlimit:10;" d="M378.092,284.16
						c-1.969,1.654-3.959,3.33-5.466,5.414c-1.507,2.084-2.504,4.65-2.216,7.206c0.288,2.555,2.075,5.02,4.58,5.601"/>
					<path style="fill:none;stroke:#626063;stroke-linecap:round;stroke-linejoin:round;stroke-miterlimit:10;" d="M436.095,284.837
						c-26.527,9.639-56.549,9.3-82.853-0.935"/>
					<path style="fill:none;stroke:#626063;stroke-linecap:round;stroke-linejoin:round;stroke-miterlimit:10;" d="M416.513,304.325
						c-12.292,13.727-26.859,25.411-42.927,34.43"/>
					<path style="fill:none;stroke:#626063;stroke-linecap:round;stroke-linejoin:round;stroke-miterlimit:10;" d="M372.408,346.235
						c7.294,26.101,11.385,45.825,13.327,72.856"/>
					<path style="fill:none;stroke:#626063;stroke-linecap:round;stroke-linejoin:round;stroke-miterlimit:10;" d="M339.421,341.225
						c-2.344,28.829-5.964,51.83-11.534,80.212"/>
				</g>
			</g>
			<g>
				<path style="fill:#663F3F;" d="M405.676,127.965c0.02,4.18-1.17,8.32-3.07,12.06c-0.72-0.27-1.51-0.41-2.32-0.41
					c-2.09,0-3.96,0.93-5.23,2.39c-1.6-3.02-2.59-6.37-2.89-9.78c-3.64-1.9-7.62-2.89-11.72-2.84c-3.66,0.04-7.3,0.91-10.6,2.5
					c-0.17,2.5-0.31,5-0.4,7.5c-3.8-4.1-5.38-10.25-3.87-15.65c-1.81-1.24-3.27-2.99-4.17-5c-0.47-1.06-0.78-2.27-0.44-3.37
					c0.48-1.52,2.16-2.44,3.76-2.41c1.59,0.04,3.07,0.87,4.29,1.89c-0.64-1.09-1.15-2.42-0.65-3.58c0.37-0.84,1.22-1.4,2.12-1.6
					c0.89-0.2,1.83-0.08,2.72,0.15c2.86,0.71,5.52,2.52,7.26,4.91c-0.21-0.57-0.18-1.23,0.06-1.79c0.39-0.89,1.27-1.52,2.21-1.74
					c0.95-0.23,1.95-0.09,2.87,0.25c2.56,0.93,4.21,3.21,5.82,5.42c-0.21-0.76-0.42-1.53-0.35-2.31s0.47-1.58,1.19-1.9
					c0.86-0.39,1.87,0.02,2.67,0.53c1.82,1.18,3.26,2.93,4.06,4.94c0.8,2.01,0.96,4.44,0.45,6.55c0.38-0.84,1.17-1.49,2.06-1.7
					c0.9-0.22,1.89,0,2.61,0.57C405.396,124.545,405.666,126.345,405.676,127.965z"/>
				<path style="fill:#B1705B;" d="M398.416,153.155c-3.88,6.23-10.37,10.79-17.56,12.3c-2.63,0.56-5.59,0.66-7.79-0.88
					c-1.46-1.02-2.41-2.65-2.91-4.36c-0.51-1.71-0.61-3.51-0.68-5.3c-0.08-2.04-0.14-4.08-0.16-6.13c-0.01-1.46-0.01-2.93,0.02-4.4
					c0.04-4.17,0.22-8.34,0.51-12.5c3.3-1.59,6.94-2.46,10.6-2.5c4.1-0.05,8.08,0.94,11.72,2.84c0.3,3.41,1.29,6.77,2.89,9.79
					c-1.05,1.2-1.68,2.77-1.68,4.5C393.376,149.675,395.506,152.345,398.416,153.155z"/>
				<path style="fill:#B1705B;" d="M402.176,177.195c-1.78,2.98-4.09,5.49-7.07,7.26c-4.16,2.47-9.28,3.44-13.95,2.17
					c-4.66-1.28-8.71-4.92-10.03-9.57c0.71-0.93,1.36-1.91,1.94-2.93c1.47-2.6,2.5-5.48,2.92-8.42c1.58,0.26,3.29,0.09,4.87-0.25
					c5.89-1.24,11.31-4.53,15.21-9.1c1.04-1.21,1.97-2.51,2.77-3.89C398.256,160.815,399.416,169.305,402.176,177.195z"/>
				<path style="fill:#B1705B;" d="M407.189,146.515c0,3.813-3.091,6.904-6.904,6.904s-6.904-3.091-6.904-6.904
					c0-3.813,3.091-6.904,6.904-6.904S407.189,142.702,407.189,146.515z"/>
				<path style="fill:none;stroke:#444145;stroke-linecap:round;stroke-linejoin:round;stroke-miterlimit:10;" d="M387.079,134.833
					c-0.625-1.009-1.829-1.628-3.013-1.548c-1.184,0.079-2.295,0.854-2.78,1.937"/>
				<path style="fill:none;stroke:#444145;stroke-linecap:round;stroke-linejoin:round;stroke-miterlimit:10;" d="M376.249,135.424
					c-0.585-0.939-1.671-1.545-2.778-1.55c-1.107-0.005-2.198,0.592-2.791,1.527"/>
				<path style="fill:none;stroke:#444145;stroke-linecap:round;stroke-linejoin:round;stroke-miterlimit:10;" d="M378.182,137.44
					c0.124,1.962,0.247,3.924,0.37,5.887c-0.526-0.514-1.431-0.576-2.021-0.139c-0.591,0.437-0.797,1.32-0.461,1.973
					c0.337,0.653,1.176,0.998,1.874,0.77"/>
				<path style="fill:none;stroke:#444145;stroke-width:2;stroke-linecap:round;stroke-linejoin:round;stroke-miterlimit:10;" d="
					M383.821,138.117c-0.035,0.566-0.035,0.566-0.07,1.133"/>
				<path style="fill:none;stroke:#444145;stroke-width:2;stroke-linecap:round;stroke-linejoin:round;stroke-miterlimit:10;" d="
					M373.167,138.297c-0.024,0.515-0.024,0.515-0.048,1.03"/>
				<path style="fill:#FFFFFF;" d="M384.507,152.657c-0.29-0.863-1.32-1.167-2.112-0.838c-0.624,0.259-1.002,0.773-1.29,1.345
					c-0.888-0.693-2.366-0.49-3.323,0.056c-0.683,0.39-1.348,1.026-1.415,1.851c-0.062,0.772,0.435,1.515,1.096,1.879
					c1.391,0.767,3.313,0.269,4.597-0.497c0.653-0.39,1.234-0.897,1.702-1.496C384.252,154.329,384.784,153.483,384.507,152.657z"/>
				<path style="fill:#9E5942;" d="M402.35,142.495c-2.785,1.369-4.868,4.037-5.526,7.069c-0.117,0.54,0.619,0.892,0.914,0.385
					c0.847-1.456,2.556-1.946,4.138-2.052c0.639-0.043,0.643-1.043,0-1c-1.192,0.079-2.414,0.355-3.421,0.965
					c0.904-1.939,2.454-3.548,4.4-4.504C403.432,143.075,402.926,142.212,402.35,142.495z"/>
				<path style="fill:#9E5942;" d="M380.856,165.455c-1.58,0.34-3.29,0.51-4.87,0.25c-0.42,2.94-1.45,5.82-2.92,8.42
					c3.99,0.24,8.01-0.47,11.68-2.08c2.05-0.89,4.05-2.05,5.63-3.65c1.48-1.48,2.62-3.28,3.48-5.18c0.99-2.19,1.65-4.51,2.21-6.86
					C392.166,160.925,386.746,164.215,380.856,165.455z"/>
				<path style="fill:#9E5942;" d="M382.309,146.587c0,1.303,1.706,2.359,3.809,2.359c2.104,0,3.809-1.056,3.809-2.359
					c0-1.303-1.706-2.359-3.809-2.359C384.014,144.228,382.309,145.284,382.309,146.587z"/>
				<path style="fill:#9E5942;" d="M374.486,146.585c0,1.3-1.7,2.36-3.81,2.36c-0.48,0-0.94-0.06-1.36-0.16
					c-0.01-1.46-0.01-2.93,0.02-4.4c0.42-0.11,0.87-0.16,1.34-0.16C372.786,144.225,374.486,145.285,374.486,146.585z"/>
			</g>
			<g>
				<g>
					<path style="fill:#518F60;" d="M437.046,278.465c-0.44,0.11-0.88,0.23-1.32,0.33h-0.01c-0.83,0.21-1.66,0.41-2.49,0.6
						c-0.84,0.2-1.67,0.39-2.51,0.57c-0.77,0.17-1.55,0.33-2.33,0.49c-0.17,0.05-0.35,0.08-0.53,0.11c-0.6,0.12-1.2,0.24-1.8,0.35
						c-0.31,0.07-0.63,0.12-0.95,0.17c-0.54,0.11-1.07,0.2-1.61,0.29c-0.27,0.06-0.54,0.1-0.81,0.14c-0.68,0.12-1.36,0.23-2.04,0.33
						c-1.03,0.17-2.06,0.32-3.09,0.45c-0.66,0.1-1.32,0.18-1.98,0.26c-0.85,0.11-1.69,0.21-2.54,0.3c-1.04,0.12-2.09,0.22-3.13,0.31
						c-0.66,0.06-1.31,0.12-1.96,0.17c-17.41,1.35-35-0.05-51.98-4.41c-0.99-5.02-1.88-10.12-2.66-15.28
						c-2.02-13.3-3.32-26.92-3.82-40.12c-6.99-1.37-13.15-5.31-17.5-10.94c4.41-8.67,9.99-16.75,16.54-23.95
						c2.93-3.23,6.11-6.31,9.9-8.46c3.8-2.15,7.58-2.46,12.7-3.12c1.32,4.65,5.37,8.29,10.03,9.57c4.67,1.27,9.79,0.3,13.95-2.17
						c2.98-1.77,5.29-4.28,7.07-7.26c6.46,0,13.49,1.69,18.95,4.02c2.67,15.12,3.21,30.51,1.75,45.77c-1.58,0.68-3.2,1.27-4.85,1.79
						c1.16,2.52,2.38,5.01,3.72,7.43c-0.04,0.38-0.1,0.75-0.16,1.13c0.06,0.11,0.13,0.22,0.19,0.33
						C429.166,250.235,434.626,264.095,437.046,278.465z"/>
					<path style="fill:#518F60;" d="M421.128,181.213c5.767,4.151,8.21,10.402,11.004,16.42c2.794,6.018,4.923,12.318,7.048,18.603
						c-6.251,5.978-13.851,10.398-22.146,12.846c-4.041-7.673-7.082-16.255-6.821-24.923S414.624,186.949,421.128,181.213z"/>
				</g>
				<g>
					<path style="fill:#3C7D4C;" d="M417.762,228.738c-5.432-9.173-8.859-20.11-6.106-30.734c0.731-2.822,1.891-5.506,3.487-7.947
						c0.353-0.54-0.512-1.042-0.863-0.505c-6.079,9.301-5.534,21.178-1.588,31.181c1.163,2.949,2.593,5.782,4.207,8.509
						C417.226,229.796,418.091,229.294,417.762,228.738z"/>
					<path style="fill:#3C7D4C;" d="M352.774,193.897c-0.954,3.452-1.715,6.956-2.299,10.489c-0.565-2.583-0.77-5.228-0.572-7.875
						c0.048-0.642-0.952-0.639-1,0c-0.25,3.333,0.103,6.69,1.033,9.9c0.035,0.122,0.106,0.201,0.188,0.258
						c-0.512,3.604-0.839,7.235-0.957,10.875c-0.074,2.276-0.067,4.553,0.013,6.828c0.022,0.642,1.022,0.645,1,0
						c-0.357-10.186,0.843-20.385,3.559-30.209C353.91,193.542,352.946,193.277,352.774,193.897z"/>
					<path style="fill:#3C7D4C;" d="M405.836,178.67c-3.11,5.199-7.905,9.48-13.731,11.342c-5.997,1.917-12.717,1.202-17.846-2.569
						c-2.546-1.872-4.604-4.436-5.777-7.376c-0.236-0.59-1.203-0.333-0.964,0.266c2.26,5.664,7.404,9.865,13.328,11.207
						c6.613,1.498,13.587-0.373,18.906-4.471c2.799-2.157,5.135-4.864,6.948-7.893C407.031,178.621,406.167,178.117,405.836,178.67z
						"/>
					<path style="fill:#3C7D4C;" d="M433.559,271.37c-1.892,0.815-3.827,1.499-5.786,2.103
						c-2.607-11.236-6.001-22.287-10.169-33.043c-1.32-3.406-2.719-6.782-4.188-10.127c-0.258-0.588-1.12-0.08-0.863,0.505
						c5.19,11.817,9.437,24.046,12.69,36.535c0.556,2.135,1.073,4.28,1.57,6.43c-6.587,1.918-13.474,2.792-20.306,3.282
						c-9.821,0.705-19.693,0.768-29.524,0.22c-5.573-0.311-11.134-0.823-16.671-1.529c-0.637-0.081-0.631,0.92,0,1
						c9.934,1.266,19.947,1.902,29.962,1.891c9.59-0.01,19.322-0.393,28.784-2.054c2.691-0.472,5.355-1.078,7.974-1.841
						c0.238,1.046,0.482,2.09,0.707,3.138c0.134,0.629,1.099,0.363,0.964-0.266c-0.226-1.056-0.469-2.109-0.709-3.162
						c2.058-0.634,4.087-1.364,6.071-2.219C434.653,271.98,434.144,271.118,433.559,271.37z"/>
					<path style="fill:#3C7D4C;" d="M408.124,258.777c-7.969-2.294-15.387-6.339-21.753-11.641
						c-6.445-5.368-11.772-11.986-15.855-19.301c-2.319-4.157-4.233-8.527-5.755-13.036c-0.207-0.614-1.083-0.365-0.964,0.266
						c0.041,0.217,0.082,0.433,0.123,0.65c0.03,0.161,0.116,0.262,0.224,0.315c2.724,7.751,6.597,15.088,11.648,21.577
						c5.197,6.678,11.645,12.385,18.996,16.592c4.118,2.357,8.511,4.23,13.07,5.543C408.478,259.92,408.743,258.956,408.124,258.777
						z"/>
					<path style="fill:#3C7D4C;" d="M396.411,262.633c-8.308,1.127-16.945-0.776-24.092-5.131c-2.045-1.246-3.955-2.692-5.711-4.319
						c-0.471-0.437-1.18,0.268-0.707,0.707c6.377,5.91,14.79,9.443,23.459,9.988c2.445,0.154,4.891,0.049,7.317-0.28
						C397.311,263.511,397.041,262.547,396.411,262.633z"/>
				</g>
			</g>
			<path style="opacity:0.15;fill:#522840;" d="M437.046,278.465c-2.42-14.37-7.88-28.23-15.27-40.8
				c-4.92,5.49-10.63,10.27-16.91,14.17c-10.02,6.23-21.28,9.93-32.99,11.26c-6.16,0.71-12.37,0.82-18.57,0.55
				c0.78,5.16,1.67,10.26,2.66,15.28c-5.68,4.27-11.54,9.02-17.12,14.05c2.62,5.1,3.47,11.09,2.34,16.72
				c-0.12,0.61-0.35,1.31-0.94,1.52c-0.69,0.24-1.38-0.37-1.75-1c-0.89-1.47-1.23-3.07-0.63-4.68c-1.64,0-3.23-1.33-3.14-2.96
				c-0.89,4.61-1.78,9.22-2.67,13.83c-0.12,0.65-0.26,1.31-0.62,1.85c-0.36,0.54-1.02,0.94-1.66,0.8c-0.39-0.08-0.83-0.45-1.02-0.85
				c-0.06,0.75-0.27,1.49-0.63,2.16c-0.23,0.41-0.56,0.83-1.03,0.91c-0.54,0.08-1.05-0.35-1.25-0.85c-0.2-0.5-0.42-0.99-0.38-1.53
				c-0.18,0.71-0.44,1.44-0.96,1.94c-0.53,0.51-1.41,0.72-2.01,0.3c-0.69-0.5-0.66-1.36-0.59-2.2c-0.09,0.71-1.2,0.82-1.69,0.3
				c-0.49-0.53-0.51-1.32-0.49-2.04c0.04-1.41,0.08-2.77,0.15-4.11c-2.7,3.56-5.03,7.13-6.84,10.66c-0.53,2.63-1.04,5.23-1.53,7.81
				c3.2-0.25,6.48,0.04,9.64,0.51c6.66,1,13.37,2.46,19.8,4.49c11.71,3.71,23.45,10.45,29.15,21.8c2.77,5.5,3.96,11.95,2.75,18.03
				c-1.14,5.75-4.48,10.71-8.78,14.61c-2.41,2.18-5.09,4.05-7.92,5.65c2.55,8.83,5.43,17.83,8.73,27.49
				c8.28,1.44,16.75,0.81,24.47-2.5c-0.02-28.5-2.81-50.34-10.41-77.81c13.84-7.76,27.74-16.79,40.17-26.66h12.13
				c5.84-11.77,7.16-25.5,4.49-38.37C436.166,278.695,436.606,278.575,437.046,278.465z M332.026,403.915
				c-9.45,0.8-19.11-0.53-27.96-3.96c0.08,6.57,0.45,13.27,1.14,20.19c7.88,2.84,16.35,3.97,24.69,3.24
				c1.94-6.85,3.67-13.4,5.22-19.82C334.086,403.715,333.056,403.825,332.026,403.915z"/>
			<path style="fill:#444145;" d="M419.552,232.026c7.299-1.987,14.044-5.973,19.304-11.411c2.281,1.622,4.132,3.981,5.086,6.612
				c0.954,2.631,1.087,5.553,0.377,8.26c-3.027,4.628-9.913,8.459-15.983,10.613c-2.204-0.017-4.05-1.471-5.451-3.173
				C420.467,239.989,419.564,235.831,419.552,232.026z"/>
			<g>
				<path style="fill:#B1705B;" d="M349.366,258.675c-2.93,10.98-7.08,22.29-11.33,32.83c3.24,5.4,4.39,12.01,3.15,18.19
					c-0.12,0.61-0.35,1.31-0.94,1.52c-0.69,0.24-1.38-0.37-1.75-1c-0.89-1.47-1.23-3.07-0.63-4.68c-1.64,0-3.23-1.33-3.14-2.96
					c-0.89,4.61-1.78,9.22-2.67,13.83c-0.12,0.65-0.26,1.31-0.62,1.85c-0.36,0.54-1.02,0.94-1.66,0.8
					c-0.39-0.08-0.83-0.45-1.02-0.85c-0.06,0.75-0.27,1.49-0.63,2.16c-0.23,0.41-0.56,0.83-1.03,0.91
					c-0.54,0.08-1.05-0.35-1.25-0.85c-0.2-0.5-0.42-0.99-0.38-1.53c-0.18,0.71-0.44,1.44-0.96,1.94c-0.53,0.51-1.41,0.72-2.01,0.3
					c-0.69-0.5-0.66-1.36-0.59-2.2c-0.09,0.71-1.2,0.82-1.69,0.3c-0.49-0.53-0.51-1.32-0.49-2.04c0.19-7.72,0.74-14.19,4.23-22.71
					c-0.76-17.35,2.78-34.67,10.36-50.3c-1.29-9.46-1.16-19.11,0.39-28.54c4.04,4,9.14,6.77,14.78,7.88
					c0.33,8.56,0.99,17.3,1.97,26.01C350.876,252.615,350.176,255.665,349.366,258.675z"/>
				<g>
					<path style="fill:#9E5942;" d="M329.178,306.241c-1.456,3.742-1.791,7.832-1.01,11.768c0.125,0.631,1.089,0.364,0.964-0.266
						c-0.746-3.764-0.38-7.663,1.01-11.236C330.376,305.907,329.409,305.647,329.178,306.241z"/>
					<path style="fill:#9E5942;" d="M326.265,306.753c-0.404,0.935-0.832,1.864-1.207,2.811c-0.358,0.904-0.444,1.809-0.464,2.773
						c-0.045,2.169,0.051,4.337,0.272,6.495c0.065,0.634,1.066,0.641,1,0c-0.205-2.003-0.303-4.016-0.279-6.03
						c0.011-0.957,0.027-1.878,0.363-2.785c0.347-0.935,0.783-1.844,1.179-2.76C327.381,306.673,326.52,306.163,326.265,306.753z"/>
					<path style="fill:#9E5942;" d="M323.559,307.181c-1.72,3.767-2.488,7.898-2.192,12.032c0.046,0.638,1.046,0.643,1,0
						c-0.283-3.951,0.41-7.921,2.056-11.527C324.688,307.105,323.826,306.596,323.559,307.181z"/>
					<path style="fill:#9E5942;" d="M342.201,246.146c-2.295-1.772-5.266-2.609-8.148-2.301c-0.633,0.067-0.64,1.068,0,1
						c2.736-0.292,5.466,0.483,7.644,2.165c0.215,0.166,0.558,0.031,0.684-0.179C342.534,246.573,342.414,246.31,342.201,246.146z"
						/>
				</g>
			</g>
		</g>
	</g>
	
		<line style="fill:none;stroke:#444145;stroke-linecap:round;stroke-linejoin:round;stroke-miterlimit:10;" x1="41.341" y1="445.495" x2="708.659" y2="445.495"/>
</g>
</svg>
